<svg xmlns="http://www.w3.org/2000/svg" width="1080" height="450.539" viewBox="0 0 1080 450.539"><g transform="translate(-56.643 -290.966)"><g transform="translate(56.643 290.966)"><rect width="1080" height="450.539" fill="#292929"/></g><g transform="translate(144.852 379.349)"><g transform="translate(0 103.765)"><path d="M127.979,506.3H145.53V387.526h-6.765q-10.053,0-17.09,3.451a33.875,33.875,0,0,0-11.516,8.881,34.252,34.252,0,0,0-6.491,12.333,77.7,77.7,0,0,0-2.02,12.937H96.024l-.208-44.843H222.873l-.573,44.944h-5.221c.067-1.314.166-8.442-1.172-13.038a34.352,34.352,0,0,0-6.491-12.333,33.959,33.959,0,0,0-11.516-8.881q-7.039-3.447-17.092-3.451h-6.762V506.3h17.547v5.443H127.979l0-5.443Z" transform="translate(-95.816 -380.285)" fill="#fff"/><path d="M234.619,404.98h-13.16v-5.263H253.63v5.263H241.565L206.287,492.1q-2.2,5.436-4.753,11.136a45.3,45.3,0,0,1-6.4,10.334A32.375,32.375,0,0,1,186,521.2a26.19,26.19,0,0,1-12.979,2.972,23.08,23.08,0,0,1-7.586-1.226,19.117,19.117,0,0,1-6.308-3.589,16.531,16.531,0,0,1-5.851-13.06,21.063,21.063,0,0,1,.64-5.172,12.978,12.978,0,0,1,2.1-4.556,10.854,10.854,0,0,1,3.747-3.245,11.229,11.229,0,0,1,5.391-1.228q6.4,0,8.776,3.417a13.073,13.073,0,0,1,2.376,7.624,13.268,13.268,0,0,1-.638,4.82,9.033,9.033,0,0,0-.64,3.595,5.558,5.558,0,0,0,1.278,3.764,4.785,4.785,0,0,0,3.839,1.492A9.287,9.287,0,0,0,186,514.438a29.345,29.345,0,0,0,5.575-6.22,67.819,67.819,0,0,0,5.027-8.765,78.543,78.543,0,0,0,4.023-9.995l-37.291-84.483H150.17v-5.263h55.388v5.263H192.4l21.936,52.232Z" transform="translate(-33 -352.5)" fill="#fff"/><path d="M199.985,518.2h13.16l.1-112.05h-13.16v-4.9h11.332q14.076,0,28.151-.979v12.237h.366a23.31,23.31,0,0,1,10.147-10.117q6.305-3.1,15.993-3.1a43.094,43.094,0,0,1,17.733,3.425,36.892,36.892,0,0,1,12.8,9.218,39.8,39.8,0,0,1,7.769,13.383,49.073,49.073,0,0,1,0,31.812,39.757,39.757,0,0,1-7.769,13.381,36.77,36.77,0,0,1-12.8,9.218,43.1,43.1,0,0,1-17.733,3.427,42.416,42.416,0,0,1-15.538-2.528,24.224,24.224,0,0,1-10.6-8.079h-.366l-.1,45.647h13.16v4.894H199.983v-4.9Zm78.242-90.677a39.985,39.985,0,0,0-2.011-11.5,16.847,16.847,0,0,0-5.484-7.918q-3.748-2.935-10.511-2.936a20.158,20.158,0,0,0-6.762,1.308A15.942,15.942,0,0,0,246.6,411.7a32.6,32.6,0,0,0-5.394,11.009q-2.2,7.1-2.195,18.522a85.528,85.528,0,0,0,1.645,18.678q1.646,7.1,4.477,10.933a13.827,13.827,0,0,0,6.674,5.137,25.749,25.749,0,0,0,8.407,1.308q6.761,0,10.511-2.938a16.814,16.814,0,0,0,5.484-7.91,40.065,40.065,0,0,0,2.011-11.5q.275-6.526.274-13.7T278.228,427.518Z" transform="translate(24.569 -352.08)" fill="#fff"/><path d="M283.711,438.744v7.235a89.391,89.391,0,0,0,.762,11.43,35.024,35.024,0,0,0,3.053,10.682A20.477,20.477,0,0,0,294.137,476q4.321,3.111,11.613,3.11,10.678,0,17.628-5.549a39.988,39.988,0,0,0,11.189-14.633l4.576,2.017q-5.086,12.617-14.829,18.923t-22.972,6.307a51.16,51.16,0,0,1-17.97-3.029,38.285,38.285,0,0,1-22.886-22.287,47.484,47.484,0,0,1-3.219-17.908,45.711,45.711,0,0,1,3.219-17.239,39.669,39.669,0,0,1,9.072-13.7,42.443,42.443,0,0,1,13.986-9,47.2,47.2,0,0,1,17.8-3.278,44.563,44.563,0,0,1,15.425,2.606,36.553,36.553,0,0,1,12.46,7.571,34.746,34.746,0,0,1,8.39,12.273,42.674,42.674,0,0,1,3.049,16.567H283.711Zm30.515-5.048V425.96a47.315,47.315,0,0,0-.592-7.311,24.107,24.107,0,0,0-2.119-6.9,13.231,13.231,0,0,0-4.24-5.046,11.689,11.689,0,0,0-6.949-1.934q-5.937,0-9.156,3.027a19.02,19.02,0,0,0-4.832,7.4,35.742,35.742,0,0,0-2.035,9.419q-.426,5.046-.594,9.084h30.516Z" transform="translate(90.771 -352.517)" fill="#fff"/><path d="M334.43,502.159h13.165L347.7,430.6H334.537v-5.409h11.337c9.386,0,18.658-1.541,28.046-2.261v79.223h13.158v5.415H334.43ZM350.789,388.1a14.128,14.128,0,1,1-4.2,10.056A13.7,13.7,0,0,1,350.789,388.1Z" transform="translate(179.947 -376.114)" fill="#fff"/><path d="M364.452,453.042h5.091a32.094,32.094,0,0,0,2.122,10.76,30.372,30.372,0,0,0,5.263,8.915,24.63,24.63,0,0,0,7.9,6.138A22.616,22.616,0,0,0,395,481.126a29.164,29.164,0,0,0,6.286-.672,19.051,19.051,0,0,0,5.511-2.1,11.166,11.166,0,0,0,3.9-3.7,10.334,10.334,0,0,0,1.443-5.635,9.266,9.266,0,0,0-3.473-7.654,35.452,35.452,0,0,0-8.578-4.877q-5.087-2.1-11.2-4.113a49.127,49.127,0,0,1-11.2-5.3,30.721,30.721,0,0,1-8.572-8.243q-3.48-4.963-3.473-13.205a25.2,25.2,0,0,1,2.376-11.346,23.73,23.73,0,0,1,6.452-8.076,27.167,27.167,0,0,1,9.5-4.877,40.726,40.726,0,0,1,11.542-1.6,55.628,55.628,0,0,1,15.444,1.765q5.948,1.767,10.866,3.616V426.8h-5.091a27.458,27.458,0,0,0-2.376-8.411,26.119,26.119,0,0,0-4.752-7.059,21.67,21.67,0,0,0-6.79-4.794,20.362,20.362,0,0,0-8.49-1.765,14.651,14.651,0,0,0-8.744,2.606q-3.645,2.605-3.645,7.816a7.9,7.9,0,0,0,3.479,6.729,36.436,36.436,0,0,0,8.572,4.457q5.087,1.935,11.2,3.951a48.973,48.973,0,0,1,11.2,5.3,29.763,29.763,0,0,1,8.572,8.409q3.471,5.134,3.481,13.366a25.5,25.5,0,0,1-2.887,12.364,28.256,28.256,0,0,1-7.721,9,34.2,34.2,0,0,1-10.95,5.549,43.163,43.163,0,0,1-12.563,1.851,66.254,66.254,0,0,1-17.4-2.1q-7.729-2.1-12.473-3.784V453.042Z" transform="translate(214.643 -352.517)" fill="#fff"/><path d="M402.014,506.9h13.165V388.879H402.014v-8.034H413.87c9.386,0,12.529.665,26.175,0l1.458,55.421h.364a30.448,30.448,0,0,1,12.065-10.812,38.807,38.807,0,0,1,17.18-3.942c9.261,0,16.642,2.8,22.489,7.729s8.776,12.372,8.776,22.344V506.9h13.158v5.4H462.891v-5.4h13.165V447.981a26.891,26.891,0,0,0-1.19-8.651,14.526,14.526,0,0,0-3.108-5.4,9.894,9.894,0,0,0-4.568-2.7,20.44,20.44,0,0,0-5.391-.72,16.8,16.8,0,0,0-7.5,1.8,20.763,20.763,0,0,0-6.487,5.046,25.487,25.487,0,0,0-4.574,7.838,28.555,28.555,0,0,0-1.733,10.181V506.9h13.158v5.4H402.016V506.9Z" transform="translate(253.742 -380.845)" fill="#fff"/></g><g transform="translate(458.202)"><path d="M320.076,431.359c1.048,2.438,1.9,4.753,3.018,6.948a62.321,62.321,0,0,0,3.87,6.329c-1.177-3.309-2.477-6.566-3.488-9.929-2.546-8.45-2.41-17.056-.856-25.64,1.339-7.446,2.968-14.838,4.477-22.255a3.593,3.593,0,0,1,.172-.558c1.063,1.888,2.179,3.854,3.285,5.81.121-.067.231-.14.343-.207-.343-3.5-.811-7.006-1.013-10.518a62.394,62.394,0,0,1,2.589-20.559c1.339-4.738,2.833-9.431,3.941-14.223,1.11-4.723,1.824-9.543,2.725-14.407a8.706,8.706,0,0,1,.841.537c7.914,6.344,13.477,14.169,15.122,24.383,1.451,8.963-.5,17.381-4.4,25.409-1.485,3.063-3.309,5.958-5.066,9.073,5.378-2.285,9.067-6.368,12.481-10.778.149.157.276.224.276.3-.067,6.672-.039,13.344-.237,20.016a20.046,20.046,0,0,1-4.04,11.039c-2.125,2.975-4.462,5.786-6.708,8.672-.276.358-.573.707-1.063,1.308,4.687-1.2,7.98-3.913,11.158-7.594-.237,2.649-.388,4.865-.64,7.073-.655,5.631-1.1,11.292-2.1,16.855-1.427,7.95-5.913,14.415-10.94,20.522-.565.7-1.153,1.384-1.718,2.082a3.538,3.538,0,0,0-.276.558,25.1,25.1,0,0,0,7.437-5.661c-.224,2.179-.423,4.359-.67,6.538-.759,6.635-1.636,13.236-3.7,19.625a43.251,43.251,0,0,1-10,16.773c-.291.291-.543.617-.974,1.108,3.624-.407,6.286-2.246,8.92-4.492-1.08,14.965-3.66,29.158-14.26,40.613,4.24-.974,6.881-4.061,9.974-7.224-1.85,6.939-4.9,12.361-11.9,14.855,3.369,2.061,6.79,1.785,10.274,1.3a17.706,17.706,0,0,1-11.113,2.811c.209,2.231,1.494,3.934,6.389,8.547-2.164-.015-4.344-.959-9.5-4.158-.388,2.79-.731,5.488-1.138,8.19q-1.717,11.3-3.488,22.6c-.088.573-2.751,1.994-2.828,1.412a21.207,21.207,0,0,1-.1-3.809c.6-9.729,1.257-19.457,1.839-29.186a6.726,6.726,0,0,0-.438-2.9c-2.619-6.323-5.29-12.667-5.87-19.539a133.351,133.351,0,0,1-.155-15.536c.155-5.133.675-10.25,1.039-15.383a5.1,5.1,0,0,1,.237-1.25,39.325,39.325,0,0,0,5.253,13.286c-.655-2.8-1.384-5.594-1.964-8.412a83.547,83.547,0,0,1-1.248-26.89c1.6-13.236,3.74-26.409,5.652-39.611C319.669,433.976,319.858,432.749,320.076,431.359Zm-3.837,153.785c3.548-6.448,25.847-193.579,24.842-201.44-.61,4.411-1.153,8.711-1.794,12.995-2.708,18.164-5.512,36.319-8.129,54.5q-4.8,33.328-9.326,66.68c-2.565,18.953-4.65,37.955-5.572,57.072C316.1,578.2,316.239,581.47,316.239,585.144Z" transform="translate(-310.371 -332.15)" fill="#fff" fill-rule="evenodd"/><path d="M312.944,446.83a22.422,22.422,0,0,1-.513,4.73,11.435,11.435,0,0,1-1.791,3.861c2.1,4.167,2.833,12.117,3.087,16.5a1.957,1.957,0,0,1-.537,1.406,1,1,0,0,0-.244.841,1.022,1.022,0,0,0,.64.772c.067.015.119.03.179.039l1.776-20.4a.991.991,0,1,1,.179.015l-1.778,20.395a1,1,0,0,0,1-.916.979.979,0,0,0-.17-.647,1.8,1.8,0,0,1-.261-1.442c1-4.264,3.108-11.977,5.883-15.717a7.023,7.023,0,0,1-1.16-4.249,19.756,19.756,0,0,1,.625-4.589l-3.585-.319Z" transform="translate(-310.06 -199.616)" fill="#fff"/><rect width="7.25" height="2.949" transform="matrix(-0.996, -0.087, 0.087, -0.996, 10.322, 246.523)" fill="#fff"/></g><g transform="translate(534.32 19.457)"><path d="M347.12,349.136l-2.826.386s.112,1.227.341,2.432c.213,1.205.42,2.419.42,2.419l2.815-.485s-.209-1.19-.407-2.373C347.234,350.335,347.12,349.136,347.12,349.136Z" transform="translate(-342.973 -331.977)" fill="#fff" fill-rule="evenodd"/><path d="M346.717,345.158l-2.848.216s.093,1.227.181,2.447.261,2.44.261,2.44l2.839-.313s-.177-1.19-.259-2.386S346.717,345.158,346.717,345.158Z" transform="translate(-343.464 -336.574)" fill="#fff" fill-rule="evenodd"/><path d="M346.537,341.176l-2.856.037.125,4.911,2.85-.142Z" transform="translate(-343.681 -341.176)" fill="#fff" fill-rule="evenodd"/><g transform="translate(2.774 25.728)"><path d="M349.786,360.819l-2.7.908s.39,1.168.78,2.328c.369,1.175.852,2.307.852,2.307l2.671-1.011s-.474-1.108-.83-2.255C350.17,361.957,349.786,360.819,349.786,360.819Z" transform="translate(-342.524 -344.203)" fill="#fff" fill-rule="evenodd"/><path d="M348.66,356.993l-2.759.729,1.321,4.73,2.727-.832Z" transform="translate(-343.89 -348.625)" fill="#fff" fill-rule="evenodd"/><path d="M347.764,353.111l-2.8.558,1.071,4.79,2.781-.653Z" transform="translate(-344.968 -353.111)" fill="#fff" fill-rule="evenodd"/></g><g transform="translate(10.442 50.467)"><path d="M354.65,371.695l-2.44,1.487,2.647,4.158,2.367-1.6Z" transform="translate(-344.266 -356.372)" fill="#fff" fill-rule="evenodd"/><path d="M352.762,368.214l-2.55,1.287,2.348,4.329,2.492-1.4Z" transform="translate(-346.575 -360.395)" fill="#fff" fill-rule="evenodd"/><path d="M351.157,364.587l-2.632,1.1s.431,1.153.938,2.268c.524,1.117,1.048,2.225,1.048,2.225l2.589-1.2s-.509-1.086-1.02-2.171S351.157,364.587,351.157,364.587Z" transform="translate(-348.525 -364.587)" fill="#fff" fill-rule="evenodd"/></g><g transform="translate(23.355 72.974)"><path d="M361.887,380.974l-1.934,2.1,3.779,3.2,1.807-2.218Z" transform="translate(-348.23 -368.156)" fill="#fff" fill-rule="evenodd"/><path d="M359.22,378.12l-2.134,1.9s.787.951,1.636,1.852l1.755,1.742L362.5,381.6s-.854-.841-1.7-1.681C359.979,379.043,359.22,378.12,359.22,378.12Z" transform="translate(-351.544 -371.455)" fill="#fff" fill-rule="evenodd"/><path d="M356.817,375.028l-2.3,1.688s2.917,3.988,3,3.919l2.212-1.806C359.648,378.9,356.817,375.028,356.817,375.028Z" transform="translate(-354.515 -375.028)" fill="#fff" fill-rule="evenodd"/></g><g transform="translate(41.995 91.25)"><path d="M371.381,387.633l-1.205,2.589s1.13.5,2.268.99,2.285.959,2.285.959l1.048-2.654s-1.108-.44-2.2-.923S371.381,387.633,371.381,387.633Z" transform="translate(-355.056 -378.737)" fill="#fff" fill-rule="evenodd"/><path d="M368.043,385.745l-1.5,2.432s1.043.662,2.134,1.257c1.082.61,2.169,1.218,2.169,1.218l1.33-2.52s-1.039-.586-2.078-1.175C369.054,386.385,368.043,385.745,368.043,385.745Z" transform="translate(-359.252 -380.918)" fill="#fff" fill-rule="evenodd"/><path d="M364.869,383.506l-1.707,2.292,4.038,2.833,1.6-2.371Z" transform="translate(-363.162 -383.506)" fill="#fff" fill-rule="evenodd"/></g><g transform="translate(65.401 103.374)"><path d="M382.413,391.045l-.446,2.82,4.88.662.319-2.841Z" transform="translate(-364.836 -386.917)" fill="#fff" fill-rule="evenodd"/><path d="M378.633,390.255l-.686,2.774,4.814,1.056.554-2.8Z" transform="translate(-369.482 -387.83)" fill="#fff" fill-rule="evenodd"/><path d="M374.953,389.13l-.933,2.7,2.35.759c1.177.394,2.358.72,2.358.72l.8-2.738c0-.006-1.151-.328-2.292-.707C376.1,389.5,374.953,389.13,374.953,389.13Z" transform="translate(-374.02 -389.13)" fill="#fff" fill-rule="evenodd"/></g><g transform="translate(91.367 107.821)"><path d="M394.126,391.745l.261,2.841s1.227-.075,2.451-.252c1.222-.157,2.451-.313,2.451-.313l-.4-2.828s-1.19.149-2.38.306C395.325,391.672,394.126,391.745,394.126,391.745Z" transform="translate(-376.749 -391.193)" fill="#fff" fill-rule="evenodd"/><path d="M390.141,391.714l.024,2.856s1.227.015,2.462-.052l2.464-.091-.149-2.848s-1.2.045-2.4.082C391.342,391.729,390.141,391.714,390.141,391.714Z" transform="translate(-381.354 -390.746)" fill="#fff" fill-rule="evenodd"/><path d="M386.283,391.508l-.218,2.848,4.926.267.082-2.856Z" transform="translate(-386.065 -390.829)" fill="#fff" fill-rule="evenodd"/></g><g transform="translate(117.313 100.427)"><path d="M405.714,389.735l1.1,2.641s1.166-.425,2.283-.983c1.121-.543,2.24-1.078,2.24-1.078l-1.276-2.552-2.154,1.028A20.6,20.6,0,0,1,405.714,389.735Z" transform="translate(-389.303 -387.763)" fill="#fff" fill-rule="evenodd"/><path d="M401.964,390.78l.791,2.744s1.207-.3,2.373-.716c1.175-.4,2.347-.8,2.347-.8l-.959-2.692-2.266.774C403.128,390.5,401.964,390.78,401.964,390.78Z" transform="translate(-393.637 -385.973)" fill="#fff" fill-rule="evenodd"/><path d="M398.1,391.439l.522,2.8s1.218-.172,2.423-.476c1.207-.269,2.41-.543,2.41-.543l-.67-2.783-2.335.537C399.291,391.267,398.1,391.439,398.1,391.439Z" transform="translate(-398.101 -384.668)" fill="#fff" fill-rule="evenodd"/></g><g transform="translate(141.452 84.43)"><path d="M415.467,383.979l2.106,1.927c.1.082,3.225-3.846,3.221-3.846l-2.281-1.718S415.558,384.06,415.467,383.979Z" transform="translate(-402.171 -380.342)" fill="#fff" fill-rule="evenodd"/><path d="M412.568,386.365l1.77,2.246c.067.091,3.8-3.257,3.8-3.257l-1.964-2.076S412.641,386.447,412.568,386.365Z" transform="translate(-405.521 -376.949)" fill="#fff" fill-rule="evenodd"/><path d="M409.3,388.274l1.425,2.47a20.5,20.5,0,0,0,2.143-1.278c1.039-.683,2.087-1.369,2.087-1.369l-1.619-2.352s-1,.647-1.994,1.3A18.754,18.754,0,0,1,409.3,388.274Z" transform="translate(-409.299 -374.098)" fill="#fff" fill-rule="evenodd"/></g><g transform="translate(159.963 61)"><path d="M420.869,374.138l2.8.573.423-2.5c.185-1.257.252-2.544.252-2.544l-2.848-.194s-.058,1.175-.231,2.343C421.065,372.976,420.869,374.138,420.869,374.138Z" transform="translate(-414.439 -369.473)" fill="#fff" fill-rule="evenodd"/><path d="M419.7,377.78l2.636,1.093s.479-1.162.882-2.35l.834-2.373-2.731-.826-.8,2.24C420.143,376.685,419.7,377.78,419.7,377.78Z" transform="translate(-415.793 -365.022)" fill="#fff" fill-rule="evenodd"/><path d="M417.886,381.084l2.41,1.533s.662-1.065,1.272-2.164,1.227-2.194,1.227-2.194l-2.552-1.287s-.582,1.035-1.16,2.067S417.886,381.084,417.886,381.084Z" transform="translate(-417.886 -360.808)" fill="#fff" fill-rule="evenodd"/></g><g transform="translate(155.787 38.186)"><path d="M419.946,363.786l1.688-2.3a4.684,4.684,0,0,0-.67-.492c-.423-.261-.99-.6-1.55-.953-1.164-.617-2.367-1.153-2.367-1.153l-1.1,2.634s1.048.483,2.067,1.011c.492.3.979.6,1.347.826A4.666,4.666,0,0,1,419.946,363.786Z" transform="translate(-415.949 -358.89)" fill="#fff" fill-rule="evenodd"/><path d="M421.588,367.094l2.552-1.278s-.14-.3-.358-.744c-.267-.425-.617-.99-.972-1.554a21.025,21.025,0,0,0-1.63-2.11l-2.128,1.9C419.126,363.241,421.795,366.96,421.588,367.094Z" transform="translate(-412.362 -355.981)" fill="#fff" fill-rule="evenodd"/><path d="M421.58,370.585l2.848-.185s-.14-1.287-.282-2.58c-.278-1.281-.558-2.565-.558-2.565l-2.751.759s.244,1.132.491,2.261C421.452,369.432,421.58,370.585,421.58,370.585Z" transform="translate(-410.301 -351.535)" fill="#fff" fill-rule="evenodd"/></g><g transform="translate(130.089 36.203)"><path d="M409.654,361.583l-.942-2.692c0-.006-1.2.416-2.378.914-1.153.537-2.307,1.071-2.307,1.071l1.3,2.552s1.071-.5,2.134-1C408.544,361.978,409.654,361.583,409.654,361.583Z" transform="translate(-404.028 -356.906)" fill="#fff" fill-rule="evenodd"/><path d="M413.278,360.859l-.224-2.848s-1.28.082-2.546.3a17.06,17.06,0,0,0-2.5.483l.64,2.783a16.265,16.265,0,0,1,2.3-.446A23.238,23.238,0,0,1,413.278,360.859Z" transform="translate(-399.434 -357.923)" fill="#fff" fill-rule="evenodd"/><path d="M416.767,361.464l.649-2.787c0,.006-1.272-.254-2.552-.47l-2.57-.237-.134,2.856s1.16.1,2.324.216C415.631,361.234,416.767,361.464,416.767,361.464Z" transform="translate(-394.63 -357.97)" fill="#fff" fill-rule="evenodd"/></g><g transform="translate(111.887 42.239)"><path d="M400.436,368.307l-2.475-1.429-2.378,4.449,2.615,1.153Z" transform="translate(-395.584 -353.711)" fill="#fff" fill-rule="evenodd"/><path d="M402.966,365.427l-2.076-1.964s-.873.923-1.681,1.912a18.685,18.685,0,0,0-1.559,2.016l2.322,1.666a16.382,16.382,0,0,1,1.438-1.86C402.155,366.28,402.966,365.427,402.966,365.427Z" transform="translate(-393.196 -357.658)" fill="#fff" fill-rule="evenodd"/><path d="M406.127,363.167l-1.559-2.395a39.33,39.33,0,0,0-4.07,3.05l1.858,2.164A37.289,37.289,0,0,1,406.127,363.167Z" transform="translate(-389.905 -360.77)" fill="#fff" fill-rule="evenodd"/></g><g transform="translate(108.201 63.698)"><path d="M396.753,378.879l-2.852.209.625,4.99,2.813-.491Z" transform="translate(-393.843 -361.302)" fill="#fff" fill-rule="evenodd"/><path d="M396.993,375.135l-2.833-.341c-.22-.024-.287,5.027-.287,5.027l2.856.03S396.784,375.113,396.993,375.135Z" transform="translate(-393.874 -366.022)" fill="#fff" fill-rule="evenodd"/><path d="M398.4,371.632l-2.708-.907s-.41,1.19-.819,2.386a15.175,15.175,0,0,0-.552,2.455l2.789.6a13.357,13.357,0,0,1,.517-2.307C398.013,372.749,398.4,371.632,398.4,371.632Z" transform="translate(-393.356 -370.725)" fill="#fff" fill-rule="evenodd"/></g><g transform="translate(109.772 89.718)"><path d="M400.174,390.117l-2.49,1.406,2.617,4.2,2.4-1.548Z" transform="translate(-391.042 -374.333)" fill="#fff" fill-rule="evenodd"/><path d="M398.542,386.539l-2.645,1.086a20.8,20.8,0,0,0,.949,2.3c.558,1.108,1.123,2.216,1.123,2.216l2.557-1.272-1.078-2.125A18.8,18.8,0,0,1,398.542,386.539Z" transform="translate(-393.107 -378.468)" fill="#fff" fill-rule="evenodd"/><path d="M397.375,382.795l-2.772.692s1.227,4.857,1.384,4.8l2.7-.923A46.016,46.016,0,0,1,397.375,382.795Z" transform="translate(-394.603 -382.795)" fill="#fff" fill-rule="evenodd"/></g><g transform="translate(121.251 112.762)"><path d="M407.259,399.524l-2.009,2.037,1.742,1.742,1.843,1.638,1.912-2.128s-.9-.8-1.8-1.584Z" transform="translate(-393.777 -386.506)" fill="#fff" fill-rule="evenodd"/><path d="M404.628,396.611l-2.173,1.852s3.2,3.753,3.274,3.686l2.078-1.955C407.732,400.258,404.628,396.611,404.628,396.611Z" transform="translate(-397.008 -389.872)" fill="#fff" fill-rule="evenodd"/><path d="M402.26,393.485l-2.332,1.658,2.949,3.964,2.24-1.77Z" transform="translate(-399.928 -393.485)" fill="#fff" fill-rule="evenodd"/></g><g transform="translate(139.286 131.635)"><path d="M416.436,406.8l-1.444,2.464,2.132,1.233c1.078.589,2.156,1.168,2.156,1.168l1.347-2.522s-1.061-.573-2.119-1.136C417.475,407.409,416.436,406.8,416.436,406.8Z" transform="translate(-400.553 -396.964)" fill="#fff" fill-rule="evenodd"/><path d="M413.184,404.659l-1.649,2.335,4.089,2.768,1.524-2.41Z" transform="translate(-404.548 -399.444)" fill="#fff" fill-rule="evenodd"/><path d="M410.124,402.24l-1.83,2.195s.944.78,1.923,1.533,1.944,1.518,1.944,1.518l1.733-2.276s-.946-.737-1.9-1.474S410.124,402.24,410.124,402.24Z" transform="translate(-408.294 -402.24)" fill="#fff" fill-rule="evenodd"/></g><g transform="translate(161.511 145.64)"><path d="M427.067,411.8l-.942,2.7s1.153.407,2.307.817c1.175.364,2.343.722,2.343.722l.854-2.723s-1.145-.358-2.3-.707C428.2,412.212,427.067,411.8,427.067,411.8Z" transform="translate(-409.912 -405.191)" fill="#fff" fill-rule="evenodd"/><path d="M423.415,410.376l-1.1,2.634s1.134.47,2.272.938,2.276.9,2.276.9l1.013-2.671s-1.125-.414-2.235-.884S423.415,410.376,423.415,410.376Z" transform="translate(-414.316 -406.843)" fill="#fff" fill-rule="evenodd"/><path d="M419.874,408.737,418.6,411.3l4.447,2.085,1.175-2.6Z" transform="translate(-418.604 -408.737)" fill="#fff" fill-rule="evenodd"/></g><g transform="translate(186.152 154.91)"><path d="M438.441,414.8l-.466,2.82,4.848.759.371-2.826Z" transform="translate(-420.859 -411.004)" fill="#fff" fill-rule="evenodd"/><path d="M434.608,414.03l-.64,2.789,4.805,1,.543-2.807Z" transform="translate(-425.49 -411.889)" fill="#fff" fill-rule="evenodd"/><path d="M430.822,413.037l-.787,2.742s1.175.349,2.365.649,2.373.608,2.373.608l.7-2.766s-1.16-.306-2.328-.6S430.822,413.037,430.822,413.037Z" transform="translate(-430.035 -413.037)" fill="#fff" fill-rule="evenodd"/></g><g transform="translate(212.051 159.855)"><path d="M450.144,415.8l.157,2.852,4.921-.455-.312-2.843Z" transform="translate(-432.694 -415.3)" fill="#fff" fill-rule="evenodd"/><path d="M446.2,415.6l-.082,2.856s1.227.082,2.464.073c1.224-.03,2.462-.058,2.462-.058L451,415.621s-1.207.022-2.4.05C447.4,415.679,446.2,415.6,446.2,415.6Z" transform="translate(-437.348 -415.024)" fill="#fff" fill-rule="evenodd"/><path d="M442.34,415.331l-.291,2.841s1.22.127,2.449.252a23.457,23.457,0,0,0,2.447.164l.179-2.85a22.117,22.117,0,0,1-2.395-.162C443.528,415.452,442.34,415.331,442.34,415.331Z" transform="translate(-442.049 -415.331)" fill="#fff" fill-rule="evenodd"/></g><g transform="translate(238.085 152.34)"><path d="M461.7,414.115l1.214,2.589c.05.127,4.411-2.4,4.411-2.4l-1.466-2.455C465.854,411.856,461.756,414.236,461.7,414.115Z" transform="translate(-445.377 -411.845)" fill="#fff" fill-rule="evenodd"/><path d="M457.983,415.061l.8,2.738s1.2-.341,2.395-.683a21.372,21.372,0,0,0,2.337-.892l-1.028-2.66a19.784,19.784,0,0,1-2.216.847C459.13,414.733,457.983,415.061,457.983,415.061Z" transform="translate(-449.668 -409.86)" fill="#fff" fill-rule="evenodd"/><path d="M454.126,415.582l.453,2.828,4.889-.9-.64-2.781Z" transform="translate(-454.126 -408.513)" fill="#fff" fill-rule="evenodd"/></g></g><g transform="translate(793.661 124.325)"><path d="M1384.561,289.074l72.672-72.4H1348.09l16.27,26.032-1.22,36.743,12.563-12.759Z" transform="translate(-1348.09 -216.673)" fill="none" stroke="#fff" stroke-width="0.8"/><path d="M1367.816,243.85l-2.576-7.05-10.168,17.761" transform="translate(-1340.021 -193.413)" fill="none" stroke="#fff" stroke-width="0.8"/><path d="M1364.7,259.617l83.261-42.915-92.284,25.974" transform="translate(-1339.325 -216.64)" fill="none" stroke="#fff" stroke-width="0.8"/></g></g></g></svg>