<svg xmlns="http://www.w3.org/2000/svg" width="368.281" height="274.078" viewBox="0 0 368.281 274.078"><g transform="translate(-121.641 -259.029)"><path d="M416,505.256l71.848-72.01-107.657-.134,15.4,25.1-.926,37.282,11.549-12.77" fill="#fff"/><path d="M125.771,345.578l-2.817.385s.111,1.222.344,2.421c.211,1.2.418,2.406.418,2.406l2.8-.481s-.2-1.185-.407-2.361C125.879,346.77,125.771,345.578,125.771,345.578Z" fill="#292929" fill-rule="evenodd"/><path d="M124.879,337.042l-2.835.214s.089,1.222.178,2.436.263,2.428.263,2.428l2.824-.311s-.178-1.185-.255-2.376S124.879,337.042,124.879,337.042Z" fill="#292929" fill-rule="evenodd"/><path d="M124.483,328.5l-2.842.037.122,4.886,2.839-.14Z" fill="#292929" fill-rule="evenodd"/><path d="M131.631,370.645l-2.7.9s.393,1.162.781,2.317c.366,1.17.848,2.3.848,2.3l2.658-1.007s-.47-1.1-.829-2.243C132.012,371.778,131.631,370.645,131.631,370.645Z" fill="#292929" fill-rule="evenodd"/><path d="M129.151,362.435l-2.747.726,1.314,4.708,2.718-.829Z" fill="#292929" fill-rule="evenodd"/><path d="M127.186,354.106l-2.788.556,1.07,4.768,2.765-.652Z" fill="#292929" fill-rule="evenodd"/><path d="M142.365,393.979l-2.424,1.481,2.635,4.139,2.355-1.592Z" fill="#292929" fill-rule="evenodd"/><path d="M138.19,386.51l-2.539,1.281,2.339,4.309,2.48-1.392Z" fill="#292929" fill-rule="evenodd"/><path d="M134.655,378.729l-2.625,1.1s.429,1.147.937,2.258,1.043,2.213,1.043,2.213l2.577-1.192s-.507-1.081-1.018-2.162C135.073,379.854,134.655,378.729,134.655,378.729Z" fill="#292929" fill-rule="evenodd"/><path d="M158.479,413.887l-1.925,2.094,3.76,3.184,1.8-2.206Z" fill="#292929" fill-rule="evenodd"/><path d="M152.526,407.765l-2.125,1.888s.781.947,1.629,1.843l1.747,1.732,2.018-2.006s-.848-.837-1.692-1.673C153.281,408.683,152.526,407.765,152.526,407.765Z" fill="#292929" fill-rule="evenodd"/><path d="M147.177,401.131l-2.291,1.681s2.9,3.968,2.987,3.9l2.2-1.8C149.991,404.98,147.177,401.131,147.177,401.131Z" fill="#292929" fill-rule="evenodd"/><path d="M179.685,428.175l-1.2,2.576s1.129.5,2.262.984c1.129.5,2.269.955,2.269.955l1.048-2.643s-1.107-.437-2.2-.918S179.685,428.175,179.685,428.175Z" fill="#292929" fill-rule="evenodd"/><path d="M172.189,424.125l-1.492,2.421s1.036.659,2.125,1.251l2.154,1.215,1.329-2.51s-1.037-.585-2.069-1.17C173.192,424.762,172.189,424.125,172.189,424.125Z" fill="#292929" fill-rule="evenodd"/><path d="M165.137,419.32l-1.7,2.281,4.02,2.821,1.588-2.362Z" fill="#292929" fill-rule="evenodd"/><path d="M204.229,435.5l-.444,2.807,4.861.658.314-2.828Z" fill="#292929" fill-rule="evenodd"/><path d="M195.838,433.8l-.681,2.762,4.8,1.05.548-2.783Z" fill="#292929" fill-rule="evenodd"/><path d="M187.665,431.388l-.929,2.688,2.339.755c1.166.393,2.351.718,2.351.718l.785-2.724c0-.008-1.147-.326-2.276-.7S187.665,431.388,187.665,431.388Z" fill="#292929" fill-rule="evenodd"/><path d="M229.874,436.362l.259,2.828s1.222-.074,2.439-.252l2.439-.311-.4-2.813s-1.184.148-2.369.3C231.066,436.289,229.874,436.362,229.874,436.362Z" fill="#292929" fill-rule="evenodd"/><path d="M221.323,436.777l.022,2.843s1.221.015,2.45-.052l2.451-.089-.148-2.836s-1.2.045-2.388.082C222.519,436.792,221.323,436.777,221.323,436.777Z" fill="#292929" fill-rule="evenodd"/><path d="M212.795,436.488l-.215,2.836,4.9.266.082-2.842Z" fill="#292929" fill-rule="evenodd"/><path d="M254.737,430.418l1.092,2.628a24.357,24.357,0,0,0,2.273-.978c1.114-.54,2.228-1.073,2.228-1.073l-1.27-2.539s-1.069.511-2.143,1.021A20.491,20.491,0,0,1,254.737,430.418Z" fill="#292929" fill-rule="evenodd"/><path d="M246.69,433.238l.789,2.732s1.2-.3,2.361-.711l2.336-.8-.955-2.68-2.254.77C247.849,432.957,246.69,433.238,246.69,433.238Z" fill="#292929" fill-rule="evenodd"/><path d="M238.4,435.193l.518,2.791s1.214-.171,2.414-.475c1.2-.267,2.4-.54,2.4-.54l-.666-2.769-2.325.533C239.587,435.022,238.4,435.193,238.4,435.193Z" fill="#292929" fill-rule="evenodd"/><path d="M275.662,416.152l2.1,1.917c.1.081,3.209-3.827,3.206-3.827l-2.269-1.71S275.751,416.233,275.662,416.152Z" fill="#292929" fill-rule="evenodd"/><path d="M269.443,421.9l1.762,2.235c.067.089,3.783-3.242,3.783-3.242l-1.954-2.065S269.514,421.985,269.443,421.9Z" fill="#292929" fill-rule="evenodd"/><path d="M262.429,426.643l1.417,2.457a20.736,20.736,0,0,0,2.132-1.272c1.037-.682,2.077-1.362,2.077-1.362l-1.61-2.34s-.992.645-1.984,1.3A19.374,19.374,0,0,1,262.429,426.643Z" fill="#292929" fill-rule="evenodd"/><path d="M287.252,393.854l2.787.57.422-2.487c.185-1.251.252-2.532.252-2.532l-2.835-.193s-.059,1.17-.229,2.332C287.448,392.7,287.252,393.854,287.252,393.854Z" fill="#292929" fill-rule="evenodd"/><path d="M284.738,401.908,287.363,403s.474-1.155.877-2.34.829-2.361.829-2.361l-2.717-.822s-.4,1.118-.792,2.229C285.183,400.82,284.738,401.908,284.738,401.908Z" fill="#292929" fill-rule="evenodd"/><path d="M280.852,409.393l2.4,1.525s.659-1.059,1.266-2.154,1.221-2.184,1.221-2.184L283.2,405.3s-.578,1.029-1.155,2.059S280.852,409.393,280.852,409.393Z" fill="#292929" fill-rule="evenodd"/><path d="M280.674,371.378l1.681-2.288a4.834,4.834,0,0,0-.666-.489c-.422-.259-.985-.6-1.544-.947-1.158-.614-2.354-1.147-2.354-1.147l-1.092,2.621s1.043.481,2.058,1.007c.488.3.974.6,1.34.822A4.8,4.8,0,0,1,280.674,371.378Z" fill="#292929" fill-rule="evenodd"/><path d="M285.878,377.567l2.54-1.273s-.141-.3-.355-.741c-.267-.422-.614-.984-.97-1.547a20.955,20.955,0,0,0-1.622-2.1l-2.117,1.888C283.428,373.732,286.086,377.434,285.878,377.567Z" fill="#292929" fill-rule="evenodd"/><path d="M287.922,385.466l2.835-.185s-.141-1.281-.282-2.569c-.277-1.273-.555-2.554-.555-2.554l-2.739.755.488,2.251Z" fill="#292929" fill-rule="evenodd"/><path d="M256.718,369.187l-.937-2.68c0-.007-1.2.415-2.365.911l-2.295,1.066,1.288,2.539s1.066-.5,2.125-.992C255.615,369.579,256.718,369.187,256.718,369.187Z" fill="#292929" fill-rule="evenodd"/><path d="M264.9,367.454l-.222-2.835s-1.273.081-2.532.3a17.15,17.15,0,0,0-2.495.481l.637,2.769a16.142,16.142,0,0,1,2.3-.444C263.736,367.521,264.9,367.454,264.9,367.454Z" fill="#292929" fill-rule="evenodd"/><path d="M273.152,368.01l.645-2.776c0,.007-1.266-.252-2.54-.466l-2.558-.237-.133,2.843s1.155.1,2.313.215C272.02,367.78,273.152,368.01,273.152,368.01Z" fill="#292929" fill-rule="evenodd"/><path d="M237.832,385.066l-2.465-1.421L233,388.072l2.6,1.148Z" fill="#292929" fill-rule="evenodd"/><path d="M242.726,378.271l-2.065-1.955s-.87.918-1.673,1.9a18.463,18.463,0,0,0-1.551,2.006l2.31,1.658a16.321,16.321,0,0,1,1.433-1.851C241.919,379.122,242.726,378.271,242.726,378.271Z" fill="#292929" fill-rule="evenodd"/><path d="M249.148,372.925l-1.551-2.384a39.209,39.209,0,0,0-4.05,3.035l1.851,2.154A36.847,36.847,0,0,1,249.148,372.925Z" fill="#292929" fill-rule="evenodd"/><path d="M232.228,409.393l-2.835.208.622,4.966,2.8-.488Z" fill="#292929" fill-rule="evenodd"/><path d="M232.439,400.969l-2.82-.341c-.218-.022-.285,5-.285,5l2.843.03S232.228,400.946,232.439,400.969Z" fill="#292929" fill-rule="evenodd"/><path d="M234.353,392.8l-2.694-.9s-.407,1.185-.814,2.376a14.81,14.81,0,0,0-.548,2.443l2.776.6a13.287,13.287,0,0,1,.514-2.3C233.968,393.913,234.353,392.8,234.353,392.8Z" fill="#292929" fill-rule="evenodd"/><path d="M239.986,433.505l-2.479,1.4,2.6,4.183,2.388-1.54Z" fill="#292929" fill-rule="evenodd"/><path d="M236.307,425.828l-2.632,1.081a20.44,20.44,0,0,0,.944,2.287c.556,1.1,1.118,2.206,1.118,2.206l2.543-1.266-1.073-2.117A18.264,18.264,0,0,1,236.307,425.828Z" fill="#292929" fill-rule="evenodd"/><path d="M233.657,417.8l-2.762.688s1.222,4.834,1.377,4.774l2.688-.918A46.1,46.1,0,0,1,233.657,417.8Z" fill="#292929" fill-rule="evenodd"/><path d="M255.74,453.693l-2,2.028,1.732,1.732,1.836,1.629,1.9-2.117s-.9-.792-1.788-1.577C256.581,454.537,255.74,453.693,255.74,453.693Z" fill="#292929" fill-rule="evenodd"/><path d="M249.907,447.438l-2.162,1.844s3.183,3.738,3.257,3.672l2.069-1.947C253,451.072,249.907,447.438,249.907,447.438Z" fill="#292929" fill-rule="evenodd"/><path d="M244.643,440.73l-2.321,1.651,2.936,3.946,2.228-1.762Z" fill="#292929" fill-rule="evenodd"/><path d="M276.081,469.313l-1.436,2.451s1.062.614,2.121,1.229c1.074.585,2.147,1.162,2.147,1.162l1.34-2.51s-1.055-.569-2.11-1.132Z" fill="#292929" fill-rule="evenodd"/><path d="M268.866,464.709l-1.639,2.324,4.067,2.754,1.518-2.4Z" fill="#292929" fill-rule="evenodd"/><path d="M262.092,459.52l-1.821,2.184s.94.777,1.914,1.525,1.936,1.51,1.936,1.51l1.725-2.265-1.888-1.466C263.01,460.282,262.092,459.52,262.092,459.52Z" fill="#292929" fill-rule="evenodd"/><path d="M299.467,480.041l-.937,2.688,2.3.814c1.17.362,2.332.718,2.332.718l.852-2.71s-1.14-.355-2.288-.7C300.6,480.448,299.467,480.041,299.467,480.041Z" fill="#292929" fill-rule="evenodd"/><path d="M291.449,476.977l-1.1,2.62s1.129.467,2.262.933,2.266.9,2.266.9l1.007-2.658s-1.122-.414-2.225-.881S291.449,476.977,291.449,476.977Z" fill="#292929" fill-rule="evenodd"/><path d="M283.658,473.46l-1.266,2.546,4.427,2.073,1.169-2.591Z" fill="#292929" fill-rule="evenodd"/><path d="M324.419,486.459l-.466,2.807,4.826.755.37-2.814Z" fill="#292929" fill-rule="evenodd"/><path d="M315.994,484.816l-.637,2.776,4.784.992.54-2.791Z" fill="#292929" fill-rule="evenodd"/><path d="M307.7,482.684l-.785,2.732s1.17.348,2.354.644,2.361.607,2.361.607l.7-2.754s-1.155-.3-2.317-.6S307.7,482.684,307.7,482.684Z" fill="#292929" fill-rule="evenodd"/><path d="M350.063,488.11l.155,2.835,4.9-.451-.312-2.828C354.809,487.674,350.063,488.11,350.063,488.11Z" fill="#292929" fill-rule="evenodd"/><path d="M341.506,488.177l-.082,2.843s1.222.082,2.451.074l2.45-.06-.045-2.835s-1.2.022-2.391.052C342.7,488.259,341.506,488.177,341.506,488.177Z" fill="#292929" fill-rule="evenodd"/><path d="M332.984,487.607l-.289,2.827,2.437.252a23.211,23.211,0,0,0,2.436.163l.178-2.836a22.027,22.027,0,0,1-2.384-.162C334.169,487.726,332.984,487.607,332.984,487.607Z" fill="#292929" fill-rule="evenodd"/><path d="M374.85,482.388l1.206,2.576c.052.126,4.391-2.392,4.391-2.392l-1.459-2.442C378.987,480.137,374.908,482.506,374.85,482.388Z" fill="#292929" fill-rule="evenodd"/><path d="M366.884,485.3l.8,2.725,2.384-.682a20.925,20.925,0,0,0,2.325-.889l-1.022-2.65a19.441,19.441,0,0,1-2.2.845Z" fill="#292929" fill-rule="evenodd"/><path d="M358.606,487.163l.453,2.813,4.863-.9-.637-2.768Z" fill="#292929" fill-rule="evenodd"/><path d="M311.853,357.768c1.044,2.428,1.9,4.734,3.006,6.918a61.879,61.879,0,0,0,3.85,6.3c-1.166-3.294-2.466-6.541-3.469-9.883-2.535-8.41-2.4-16.976-.855-25.522,1.337-7.407,2.954-14.766,4.457-22.146a3.829,3.829,0,0,1,.17-.555c1.063,1.876,2.17,3.831,3.276,5.781.114-.066.226-.141.341-.207-.345-3.49-.812-6.974-1.011-10.472a62.124,62.124,0,0,1,2.58-20.458c1.328-4.716,2.816-9.387,3.924-14.155,1.1-4.7,1.81-9.5,2.7-14.34a7.5,7.5,0,0,1,.837.533c7.877,6.311,13.414,14.1,15.051,24.267,1.443,8.921-.5,17.3-4.383,25.289-1.48,3.046-3.294,5.93-5.038,9.032,5.349-2.272,9.024-6.341,12.419-10.727.148.156.274.222.274.3-.067,6.641-.037,13.281-.237,19.922a19.911,19.911,0,0,1-4.021,10.986c-2.113,2.961-4.441,5.76-6.674,8.632-.277.355-.569.7-1.059,1.3,4.66-1.2,7.943-3.894,11.1-7.562-.237,2.639-.385,4.845-.637,7.044-.651,5.6-1.092,11.238-2.088,16.775-1.422,7.91-5.886,14.343-10.887,20.425-.566.692-1.146,1.377-1.713,2.069a3.852,3.852,0,0,0-.271.555,24.932,24.932,0,0,0,7.4-5.633c-.223,2.172-.422,4.342-.666,6.511-.756,6.6-1.629,13.174-3.688,19.534a43,43,0,0,1-9.949,16.689c-.285.293-.541.615-.97,1.1,3.6-.407,6.255-2.232,8.876-4.468-1.073,14.892-3.643,29.017-14.191,40.417,4.223-.97,6.848-4.038,9.928-7.185-1.844,6.907-4.879,12.3-11.842,14.78,3.35,2.051,6.759,1.78,10.224,1.292a17.644,17.644,0,0,1-11.063,2.8c.207,2.221,1.487,3.916,6.359,8.506-2.151-.015-4.324-.955-9.458-4.138-.385,2.775-.726,5.467-1.137,8.15q-1.71,11.254-3.472,22.49c-.089.57-2.735,1.984-2.81,1.407a20.26,20.26,0,0,1-.1-3.791c.6-9.683,1.248-19.362,1.825-29.05a6.653,6.653,0,0,0-.437-2.88c-2.606-6.292-5.26-12.607-5.841-19.444a133.008,133.008,0,0,1-.155-15.469c.155-5.107.674-10.2,1.037-15.31a4.937,4.937,0,0,1,.237-1.243,39.235,39.235,0,0,0,5.226,13.226c-.651-2.8-1.377-5.571-1.954-8.377a83.124,83.124,0,0,1-1.24-26.762c1.592-13.174,3.725-26.285,5.627-39.422C311.449,360.377,311.642,359.155,311.853,357.768ZM308.032,510.83c3.535-6.418,25.726-192.666,24.727-200.491-.6,4.39-1.147,8.669-1.784,12.933-2.691,18.079-5.485,36.146-8.092,54.243q-4.77,33.165-9.283,66.366c-2.555,18.859-4.627,37.773-5.545,56.8C307.9,503.924,308.032,507.174,308.032,510.83Z" fill="#292929" fill-rule="evenodd"/><path d="M305.063,505.078a22.283,22.283,0,0,1-.511,4.709,11.359,11.359,0,0,1-1.78,3.842c2.084,4.149,2.817,12.063,3.068,16.42a1.954,1.954,0,0,1-.533,1.4.99.99,0,0,0-.241.833,1,1,0,0,0,.637.77,1.821,1.821,0,0,0,.178.041l1.766-20.3a.966.966,0,1,1,.177.019l-1.77,20.3a1,1,0,0,0,1-.907.966.966,0,0,0-.17-.644,1.83,1.83,0,0,1-.259-1.44c1-4.241,3.1-11.915,5.855-15.643a6.984,6.984,0,0,1-1.155-4.227,19.69,19.69,0,0,1,.622-4.568l-3.564-.314Z" fill="#292929"/><rect width="7.212" height="2.932" transform="translate(312.489 504.432) rotate(-175.02)" fill="#292929"/><g transform="translate(-965.641 207.468)"><path d="M1384.682,289.314l72.913-72.641H1348.09l16.324,26.118-1.224,36.865,12.6-12.8Z" transform="translate(-3 9)" fill="none" stroke="#292929" stroke-width="0.8"/><path d="M1367.858,243.873l-2.585-7.074-10.181,19.271" transform="translate(5.118 32.404)" fill="none" stroke="#292929" stroke-width="0.8"/><path d="M1364.627,259.987l83.58-43.285-92.643,26.087" transform="translate(5.875 9.033)" fill="none" stroke="#292929" stroke-width="0.8"/></g></g></svg>