<svg xmlns="http://www.w3.org/2000/svg" width="1048" height="1048" viewBox="0 0 1048 1048"><g transform="translate(-627 -216)"><path d="M20.849,0h1006.3A20.849,20.849,0,0,1,1048,20.849v1006.3A20.849,20.849,0,0,1,1027.151,1048H20.849A20.849,20.849,0,0,1,0,1027.151V20.849A20.849,20.849,0,0,1,20.849,0Z" transform="translate(627 216)" fill="#fff"/><g transform="translate(774.332 458.541)"><g transform="translate(0 0)"><g transform="translate(0 142.563)"><path d="M128.735,345.578l-5.781.79s.228,2.508.706,4.968c.433,2.461.858,4.938.858,4.938l5.744-.987s-.419-2.432-.835-4.845C128.957,348.024,128.735,345.578,128.735,345.578Z" transform="translate(-120.26 -310.529)" fill="#292929" fill-rule="evenodd"/><path d="M127.862,337.042l-5.818.439s.183,2.508.365,5c.166,2.506.54,4.982.54,4.982l5.8-.638s-.365-2.432-.523-4.876C128.036,339.488,127.862,337.042,127.862,337.042Z" transform="translate(-121.217 -319.511)" fill="#292929" fill-rule="evenodd"/><path d="M127.473,328.5l-5.832.076.25,10.027,5.826-.287Z" transform="translate(-121.641 -328.499)" fill="#292929" fill-rule="evenodd"/><g transform="translate(5.658 52.549)"><path d="M134.467,370.645l-5.531,1.853s.806,2.385,1.6,4.755c.751,2.4,1.74,4.71,1.74,4.71l5.455-2.066s-.965-2.264-1.7-4.6C135.248,372.97,134.467,370.645,134.467,370.645Z" transform="translate(-119.623 -336.705)" fill="#292929" fill-rule="evenodd"/><path d="M132.041,362.435l-5.637,1.49,2.7,9.661,5.578-1.7Z" transform="translate(-122.287 -345.343)" fill="#292929" fill-rule="evenodd"/><path d="M130.119,354.106l-5.721,1.141,2.2,9.785,5.674-1.338Z" transform="translate(-124.398 -354.106)" fill="#292929" fill-rule="evenodd"/></g><g transform="translate(21.32 103.079)"><path d="M144.915,393.979l-4.974,3.039,5.407,8.494,4.833-3.267Z" transform="translate(-123.706 -362.684)" fill="#292929" fill-rule="evenodd"/><path d="M140.861,386.51l-5.21,2.629,4.8,8.843,5.089-2.857Z" transform="translate(-128.22 -370.542)" fill="#292929" fill-rule="evenodd"/><path d="M137.417,378.729l-5.387,2.249s.88,2.354,1.923,4.634c1.071,2.278,2.14,4.542,2.14,4.542l5.288-2.446s-1.04-2.218-2.089-4.437C138.275,381.038,137.417,378.729,137.417,378.729Z" transform="translate(-132.03 -378.729)" fill="#292929" fill-rule="evenodd"/></g><g transform="translate(47.702 149.051)"><path d="M160.5,413.887l-3.95,4.3,7.716,6.534,3.692-4.527Z" transform="translate(-132.61 -387.71)" fill="#292929" fill-rule="evenodd"/><path d="M154.762,407.765l-4.361,3.875s1.6,1.943,3.343,3.782c1.794,1.777,3.585,3.554,3.585,3.554l4.141-4.117s-1.74-1.718-3.472-3.433C156.311,409.649,154.762,407.765,154.762,407.765Z" transform="translate(-139.083 -394.151)" fill="#292929" fill-rule="evenodd"/><path d="M149.587,401.131l-4.7,3.45s5.955,8.143,6.13,8.005l4.513-3.692C155.362,409.03,149.587,401.131,149.587,401.131Z" transform="translate(-144.886 -401.131)" fill="#292929" fill-rule="evenodd"/></g><g transform="translate(85.774 186.378)"><path d="M180.947,428.175l-2.461,5.286s2.317,1.018,4.642,2.019c2.317,1.034,4.656,1.96,4.656,1.96l2.151-5.424c.008,0-2.272-.9-4.5-1.884S180.947,428.175,180.947,428.175Z" transform="translate(-147.605 -410.003)" fill="#292929" fill-rule="evenodd"/><path d="M173.759,424.125l-3.062,4.968s2.126,1.352,4.361,2.567l4.42,2.493L182.205,429s-2.128-1.2-4.246-2.4C175.817,425.432,173.759,424.125,173.759,424.125Z" transform="translate(-155.801 -414.264)" fill="#292929" fill-rule="evenodd"/><path d="M166.925,419.32,163.438,424l8.25,5.789,3.259-4.847Z" transform="translate(-163.438 -419.32)" fill="#292929" fill-rule="evenodd"/></g><g transform="translate(133.584 211.143)"><path d="M204.7,435.5l-.911,5.76,9.976,1.35.644-5.8Z" transform="translate(-168.798 -427.066)" fill="#292929" fill-rule="evenodd"/><path d="M196.555,433.8l-1.4,5.668L205,441.624l1.125-5.711Z" transform="translate(-177.876 -428.849)" fill="#292929" fill-rule="evenodd"/><path d="M188.642,431.388l-1.906,5.516s2.4.774,4.8,1.549c2.393.806,4.825,1.473,4.825,1.473l1.611-5.59c.008-.016-2.354-.669-4.671-1.443C190.968,432.147,188.642,431.388,188.642,431.388Z" transform="translate(-186.736 -431.388)" fill="#292929" fill-rule="evenodd"/></g><g transform="translate(186.62 220.226)"><path d="M229.874,436.939l.531,5.8s2.508-.152,5.005-.517l5.005-.638-.821-5.773s-2.43.3-4.862.624C232.32,436.789,229.874,436.939,229.874,436.939Z" transform="translate(-194.384 -435.814)" fill="#292929" fill-rule="evenodd"/><path d="M221.323,436.918l.045,5.834s2.506.031,5.028-.107c2.516-.092,5.03-.182,5.03-.182l-.3-5.82s-2.454.092-4.9.168C223.777,436.949,221.323,436.918,221.323,436.918Z" transform="translate(-203.381 -434.942)" fill="#292929" fill-rule="evenodd"/><path d="M213.021,436.488l-.441,5.82,10.058.546.168-5.832Z" transform="translate(-212.58 -435.105)" fill="#292929" fill-rule="evenodd"/></g><g transform="translate(239.611 205.126)"><path d="M254.737,432.482l2.241,5.393a49.948,49.948,0,0,0,4.665-2.007c2.286-1.108,4.572-2.2,4.572-2.2l-2.606-5.21s-2.194,1.049-4.4,2.1A42.063,42.063,0,0,1,254.737,432.482Z" transform="translate(-221.215 -428.456)" fill="#292929" fill-rule="evenodd"/><path d="M246.69,434.773l1.619,5.606s2.461-.609,4.845-1.459c2.4-.821,4.794-1.642,4.794-1.642l-1.96-5.5s-2.317.79-4.626,1.58C249.068,434.2,246.69,434.773,246.69,434.773Z" transform="translate(-229.682 -424.96)" fill="#292929" fill-rule="evenodd"/><path d="M238.4,436.238l1.063,5.727s2.491-.351,4.954-.975c2.46-.548,4.921-1.108,4.921-1.108l-1.367-5.682s-2.385.548-4.771,1.094C240.834,435.887,238.4,436.238,238.4,436.238Z" transform="translate(-238.402 -422.413)" fill="#292929" fill-rule="evenodd"/></g><g transform="translate(288.918 172.448)"><path d="M275.662,419.961l4.3,3.934c.2.166,6.585-7.854,6.579-7.854l-4.656-3.509S275.845,420.127,275.662,419.961Z" transform="translate(-248.506 -412.532)" fill="#292929" fill-rule="evenodd"/><path d="M269.443,425.136l3.616,4.587c.138.183,7.763-6.653,7.763-6.653l-4.01-4.238S269.589,425.3,269.443,425.136Z" transform="translate(-255.049 -405.904)" fill="#292929" fill-rule="evenodd"/><path d="M262.429,429.291l2.908,5.042a42.551,42.551,0,0,0,4.375-2.61c2.128-1.4,4.262-2.8,4.262-2.8l-3.3-4.8s-2.036,1.324-4.071,2.66A39.768,39.768,0,0,1,262.429,429.291Z" transform="translate(-262.429 -400.334)" fill="#292929" fill-rule="evenodd"/></g><g transform="translate(326.724 124.592)"><path d="M287.252,398.738l5.719,1.17s.433-2.553.866-5.1c.379-2.567.517-5.2.517-5.2l-5.818-.4s-.121,2.4-.47,4.786C287.654,396.368,287.252,398.738,287.252,398.738Z" transform="translate(-274.118 -389.212)" fill="#292929" fill-rule="evenodd"/><path d="M284.738,406.573l5.387,2.235s.973-2.37,1.8-4.8c.852-2.415,1.7-4.845,1.7-4.845l-5.576-1.687s-.813,2.294-1.625,4.574C285.651,404.341,284.738,406.573,284.738,406.573Z" transform="translate(-276.763 -380.519)" fill="#292929" fill-rule="evenodd"/><path d="M280.852,413.7l4.923,3.13s1.352-2.173,2.6-4.42,2.506-4.482,2.506-4.482l-5.21-2.629s-1.186,2.112-2.37,4.225S280.852,413.7,280.852,413.7Z" transform="translate(-280.852 -372.286)" fill="#292929" fill-rule="evenodd"/></g><g transform="translate(318.202 77.998)"><path d="M284.856,376.5l3.45-4.7a9.928,9.928,0,0,0-1.367-1c-.866-.532-2.021-1.231-3.168-1.943-2.376-1.26-4.831-2.354-4.831-2.354l-2.241,5.379s2.14.987,4.223,2.067c1,.624,2,1.231,2.75,1.687A9.834,9.834,0,0,1,284.856,376.5Z" transform="translate(-276.699 -366.507)" fill="#292929" fill-rule="evenodd"/><path d="M288.534,383.525l5.212-2.612s-.289-.607-.728-1.521c-.548-.866-1.26-2.019-1.991-3.175A42.988,42.988,0,0,0,287.7,371.9l-4.344,3.874C283.506,375.655,288.961,383.252,288.534,383.525Z" transform="translate(-269.697 -360.829)" fill="#292929" fill-rule="evenodd"/><path d="M288.7,391.051l5.818-.38s-.289-2.629-.579-5.272c-.568-2.612-1.139-5.241-1.139-5.241l-5.621,1.549s.5,2.309,1,4.619C288.443,388.7,288.7,391.051,288.7,391.051Z" transform="translate(-265.67 -352.144)" fill="#292929" fill-rule="evenodd"/></g><g transform="translate(265.712 73.943)"><path d="M262.607,372.007l-1.923-5.5c0-.014-2.454.852-4.853,1.87l-4.71,2.188,2.643,5.21s2.188-1.018,4.361-2.036C260.343,372.811,262.607,372.007,262.607,372.007Z" transform="translate(-251.121 -362.452)" fill="#292929" fill-rule="evenodd"/><path d="M270.421,370.437l-.456-5.818s-2.612.166-5.2.608a35.2,35.2,0,0,0-5.12.987l1.307,5.682a33.118,33.118,0,0,1,4.71-.911C268.036,370.575,270.421,370.437,270.421,370.437Z" transform="translate(-242.148 -364.438)" fill="#292929" fill-rule="evenodd"/><path d="M277.977,371.67l1.324-5.7c0,.014-2.6-.517-5.213-.956-2.621-.244-5.249-.486-5.249-.486l-.273,5.834s2.37.213,4.747.441C275.654,371.2,277.977,371.67,277.977,371.67Z" transform="translate(-232.766 -364.531)" fill="#292929" fill-rule="evenodd"/></g><g transform="translate(228.529 86.272)"><path d="M242.914,386.561l-5.059-2.916L233,392.73l5.34,2.356Z" transform="translate(-233.002 -356.75)" fill="#292929" fill-rule="evenodd"/><path d="M248.291,380.328l-4.238-4.012s-1.785,1.884-3.433,3.905a37.89,37.89,0,0,0-3.183,4.117l4.741,3.4a33.486,33.486,0,0,1,2.941-3.8C246.635,382.074,248.291,380.328,248.291,380.328Z" transform="translate(-228.336 -364.461)" fill="#292929" fill-rule="evenodd"/><path d="M255.042,375.435l-3.183-4.892a80.469,80.469,0,0,0-8.311,6.228l3.8,4.42A75.621,75.621,0,0,1,255.042,375.435Z" transform="translate(-221.908 -370.539)" fill="#292929" fill-rule="evenodd"/></g><g transform="translate(221.002 130.108)"><path d="M235.211,409.393l-5.818.427,1.276,10.191,5.742-1Z" transform="translate(-229.272 -373.495)" fill="#292929" fill-rule="evenodd"/><path d="M235.706,401.328l-5.787-.7c-.447-.045-.585,10.269-.585,10.269l5.834.062S235.273,401.281,235.706,401.328Z" transform="translate(-229.334 -382.717)" fill="#292929" fill-rule="evenodd"/><path d="M238.621,393.753l-5.529-1.853s-.835,2.432-1.67,4.876a30.393,30.393,0,0,0-1.125,5.013l5.7,1.231a27.261,27.261,0,0,1,1.055-4.71C237.83,396.031,238.621,393.753,238.621,393.753Z" transform="translate(-228.321 -391.9)" fill="#292929" fill-rule="evenodd"/></g><g transform="translate(224.205 183.25)"><path d="M242.594,433.505l-5.087,2.871,5.346,8.584,4.9-3.16Z" transform="translate(-223.938 -401.268)" fill="#292929" fill-rule="evenodd"/><path d="M239.076,425.828l-5.4,2.218a41.952,41.952,0,0,0,1.937,4.693c1.141,2.266,2.294,4.527,2.294,4.527l5.219-2.6s-1.1-2.173-2.2-4.344A37.455,37.455,0,0,1,239.076,425.828Z" transform="translate(-227.97 -409.345)" fill="#292929" fill-rule="evenodd"/><path d="M236.563,417.8l-5.668,1.412c.008,0,2.508,9.92,2.826,9.8l5.516-1.884C238.919,427.215,236.563,417.8,236.563,417.8Z" transform="translate(-230.895 -417.796)" fill="#292929" fill-rule="evenodd"/></g><g transform="translate(247.655 230.314)"><path d="M257.843,453.693l-4.1,4.162,3.554,3.554c1.884,1.67,3.768,3.343,3.768,3.343l3.9-4.344s-1.839-1.625-3.669-3.236C259.569,455.425,257.843,453.693,257.843,453.693Z" transform="translate(-230.308 -427.091)" fill="#292929" fill-rule="evenodd"/><path d="M252.182,447.438l-4.437,3.784s6.532,7.671,6.684,7.536l4.246-4C258.525,454.9,252.182,447.438,252.182,447.438Z" transform="translate(-236.616 -433.672)" fill="#292929" fill-rule="evenodd"/><path d="M247.085,440.73l-4.763,3.388,6.025,8.1,4.572-3.616Z" transform="translate(-242.322 -440.73)" fill="#292929" fill-rule="evenodd"/></g><g transform="translate(284.489 268.874)"><path d="M277.592,469.313l-2.947,5.03s2.179,1.26,4.353,2.522c2.2,1.2,4.406,2.385,4.406,2.385l2.75-5.151s-2.165-1.168-4.33-2.323C279.71,470.544,277.592,469.313,277.592,469.313Z" transform="translate(-245.148 -449.216)" fill="#292929" fill-rule="evenodd"/><path d="M270.59,464.709l-3.363,4.769,8.346,5.652,3.115-4.921Z" transform="translate(-252.952 -454.06)" fill="#292929" fill-rule="evenodd"/><path d="M264.008,459.52,260.271,464s1.929,1.595,3.928,3.129c1.982,1.549,3.973,3.1,3.973,3.1l3.54-4.648-3.874-3.008C265.892,461.084,264.008,459.52,264.008,459.52Z" transform="translate(-260.271 -459.52)" fill="#292929" fill-rule="evenodd"/></g><g transform="translate(329.884 297.481)"><path d="M300.453,480.041l-1.923,5.516,4.71,1.671c2.4.743,4.786,1.473,4.786,1.473l1.748-5.561s-2.339-.729-4.7-1.443C302.77,480.876,300.453,480.041,300.453,480.041Z" transform="translate(-265.412 -466.536)" fill="#292929" fill-rule="evenodd"/><path d="M292.6,476.977l-2.249,5.377s2.317.958,4.642,1.915c2.309.973,4.65,1.839,4.65,1.839l2.066-5.455s-2.3-.85-4.566-1.808C294.874,477.9,292.6,476.977,292.6,476.977Z" transform="translate(-274.016 -469.76)" fill="#292929" fill-rule="evenodd"/><path d="M284.99,473.46l-2.6,5.225,9.085,4.254,2.4-5.317Z" transform="translate(-282.392 -473.46)" fill="#292929" fill-rule="evenodd"/></g><g transform="translate(380.215 316.41)"><path d="M324.909,486.459l-.956,5.76,9.9,1.549.759-5.775Z" transform="translate(-288.995 -478.712)" fill="#292929" fill-rule="evenodd"/><path d="M316.664,484.816l-1.307,5.7,9.817,2.036,1.108-5.728Z" transform="translate(-298.039 -480.441)" fill="#292929" fill-rule="evenodd"/><path d="M308.529,482.684l-1.611,5.606s2.4.714,4.831,1.322c2.415.624,4.845,1.246,4.845,1.246l1.428-5.652s-2.37-.624-4.755-1.231S308.529,482.684,308.529,482.684Z" transform="translate(-306.918 -482.684)" fill="#292929" fill-rule="evenodd"/></g><g transform="translate(433.114 326.513)"><path d="M350.063,488.577l.318,5.818,10.058-.925-.64-5.8C359.8,487.683,350.063,488.577,350.063,488.577Z" transform="translate(-314.421 -487.545)" fill="#292929" fill-rule="evenodd"/><path d="M341.592,488.177l-.168,5.834s2.508.168,5.03.152c2.506-.06,5.028-.123,5.028-.123l-.092-5.818s-2.461.045-4.907.107C344.036,488.345,341.592,488.177,341.592,488.177Z" transform="translate(-323.511 -487.007)" fill="#292929" fill-rule="evenodd"/><path d="M333.288,487.607l-.593,5.8,5,.517a47.654,47.654,0,0,0,5,.334l.365-5.82a45.233,45.233,0,0,1-4.892-.332C335.72,487.851,333.288,487.607,333.288,487.607Z" transform="translate(-332.695 -487.607)" fill="#292929" fill-rule="evenodd"/></g><g transform="translate(486.287 311.169)"><path d="M374.85,484.764l2.475,5.286c.107.259,9.011-4.909,9.011-4.909l-2.994-5.011C383.34,480.144,374.969,485.006,374.85,484.764Z" transform="translate(-341.515 -480.13)" fill="#292929" fill-rule="evenodd"/><path d="M366.884,486.879l1.64,5.592,4.892-1.4a42.939,42.939,0,0,0,4.771-1.824l-2.1-5.438a39.917,39.917,0,0,1-4.525,1.734C369.221,486.21,366.884,486.879,366.884,486.879Z" transform="translate(-349.896 -476.259)" fill="#292929" fill-rule="evenodd"/><path d="M358.606,488.058l.93,5.773,9.98-1.839-1.307-5.68Z" transform="translate(-358.606 -473.626)" fill="#292929" fill-rule="evenodd"/></g></g><g transform="translate(370.514)"><path d="M322.02,461.656c2.143,4.983,3.895,9.715,6.169,14.2a126.948,126.948,0,0,0,7.9,12.929c-2.393-6.76-5.061-13.423-7.119-20.281-5.2-17.259-4.921-34.837-1.755-52.375,2.744-15.2,6.062-30.3,9.147-45.447a7.849,7.849,0,0,1,.349-1.139c2.181,3.85,4.453,7.862,6.723,11.863.234-.135.464-.289.7-.425-.708-7.162-1.666-14.312-2.075-21.49-.813-14.3,1.426-28.25,5.295-41.983,2.725-9.678,5.779-19.263,8.052-29.048,2.255-9.647,3.715-19.491,5.551-29.428a15.4,15.4,0,0,1,1.718,1.094c16.165,12.951,27.527,28.933,30.887,49.8,2.961,18.307-1.018,35.5-8.995,51.9-3.037,6.251-6.76,12.169-10.339,18.535,10.977-4.662,18.519-13.013,25.486-22.013.3.32.562.456.562.607-.138,13.628-.076,27.255-.486,40.883-.242,8.309-3.479,15.845-8.252,22.545-4.336,6.076-9.114,11.82-13.7,17.714-.569.728-1.168,1.443-2.173,2.674,9.563-2.461,16.3-7.991,22.783-15.518-.486,5.416-.79,9.943-1.307,14.455-1.336,11.494-2.241,23.062-4.285,34.425-2.918,16.232-12.079,29.434-22.342,41.915-1.161,1.42-2.352,2.826-3.515,4.246a7.913,7.913,0,0,0-.556,1.139c6.22-2.8,10.643-7.027,15.184-11.56-.458,4.457-.866,8.911-1.367,13.362-1.551,13.544-3.343,27.035-7.568,40.087a88.254,88.254,0,0,1-20.417,34.248c-.585.6-1.11,1.262-1.991,2.265,7.4-.835,12.836-4.58,18.215-9.169-2.2,30.561-7.476,59.547-29.122,82.942,8.666-1.991,14.053-8.287,20.374-14.745-3.784,14.174-10.012,25.244-24.3,30.331,6.875,4.209,13.87,3.653,20.981,2.651-6.971,4.268-14.455,6.5-22.7,5.736.425,4.558,3.052,8.036,13.05,17.456-4.414-.031-8.874-1.96-19.409-8.492-.79,5.695-1.49,11.219-2.333,16.725q-3.509,23.1-7.125,46.153c-.183,1.17-5.613,4.071-5.766,2.887a41.565,41.565,0,0,1-.2-7.78c1.223-19.871,2.561-39.734,3.745-59.615a13.652,13.652,0,0,0-.9-5.91c-5.348-12.912-10.794-25.871-11.986-39.9-.9-10.519-.653-21.168-.318-31.745.318-10.48,1.383-20.934,2.128-31.418a10.125,10.125,0,0,1,.486-2.551c2.1,9.647,5.325,18.808,10.724,27.142-1.336-5.736-2.826-11.432-4.01-17.191a170.58,170.58,0,0,1-2.545-54.92c3.267-27.035,7.644-53.941,11.547-80.9C321.19,467.01,321.587,464.5,322.02,461.656Zm-7.841,314.106c7.254-13.171,52.793-395.379,50.743-411.437-1.24,9.009-2.354,17.79-3.661,26.54-5.523,37.1-11.256,74.177-16.606,111.315q-9.789,68.059-19.05,136.193c-5.243,38.7-9.5,77.516-11.379,116.562C313.9,761.589,314.178,768.259,314.178,775.762Z" transform="translate(-302.19 -259.029)" fill="#292929" fill-rule="evenodd"/><path d="M307.473,505.078a45.723,45.723,0,0,1-1.049,9.664,23.31,23.31,0,0,1-3.653,7.884c4.277,8.515,5.781,24.755,6.3,33.7a4.009,4.009,0,0,1-1.094,2.879,2.032,2.032,0,0,0-.494,1.709,2.062,2.062,0,0,0,1.307,1.58,3.632,3.632,0,0,0,.365.084l3.624-41.667a1.983,1.983,0,1,1,.363.039l-3.632,41.65a2.042,2.042,0,0,0,2.05-1.861,1.982,1.982,0,0,0-.349-1.322,3.756,3.756,0,0,1-.532-2.955c2.05-8.7,6.351-24.451,12.015-32.1,0,0-2.37-2.9-2.37-8.674a40.41,40.41,0,0,1,1.276-9.374l-7.314-.644Z" transform="translate(-301.578 -0.15)" fill="#292929"/><rect width="14.8" height="6.017" transform="translate(21.134 503.603) rotate(-175.02)" fill="#292929"/></g><g transform="translate(535.511 361.247)"><path d="M1420.757,360.926l144.792-144.253H1348.09l32.417,51.866-2.431,73.207,25.031-25.422Z" transform="translate(-1348.09 -216.673)" fill="none" stroke="#292929" stroke-width="0.8"/><path d="M1380.43,250.846,1375.3,236.8l-20.216,38.043" transform="translate(-1325.052 -150.356)" fill="none" stroke="#292929" stroke-width="0.8"/><path d="M1373.417,302.279,1539.383,216.7l-183.662,51.617" transform="translate(-1322.941 -216.579)" fill="none" stroke="#292929" stroke-width="0.8"/></g></g></g></g></svg>