<svg xmlns="http://www.w3.org/2000/svg" width="1048" height="1048" viewBox="0 0 1048 1048"><g transform="translate(-644 -203)"><rect width="1048" height="1048" rx="30" transform="translate(644 203)" fill="#292929"/><g transform="translate(731.957 490.993)"><g transform="translate(0 0)"><g transform="translate(0 142.581)"><path d="M128.736,345.578l-5.782.79s.228,2.508.706,4.969c.433,2.461.858,4.938.858,4.938l5.745-.987s-.419-2.432-.835-4.846C128.957,348.025,128.736,345.578,128.736,345.578Z" transform="translate(-120.259 -310.525)" fill="#fff" fill-rule="evenodd"/><path d="M127.863,337.042l-5.819.439s.183,2.508.365,5c.166,2.506.54,4.983.54,4.983l5.8-.638s-.365-2.432-.523-4.876C128.037,339.489,127.863,337.042,127.863,337.042Z" transform="translate(-121.217 -319.508)" fill="#fff" fill-rule="evenodd"/><path d="M127.474,328.5l-5.833.076.25,10.028,5.827-.287Z" transform="translate(-121.641 -328.499)" fill="#fff" fill-rule="evenodd"/><g transform="translate(5.659 52.556)"><path d="M134.467,370.645l-5.531,1.853s.807,2.385,1.6,4.755c.751,2.4,1.741,4.71,1.741,4.71l5.455-2.067s-.965-2.264-1.7-4.6C135.249,372.97,134.467,370.645,134.467,370.645Z" transform="translate(-119.622 -336.7)" fill="#fff" fill-rule="evenodd"/><path d="M132.042,362.435l-5.638,1.49,2.7,9.663,5.578-1.7Z" transform="translate(-122.287 -345.34)" fill="#fff" fill-rule="evenodd"/><path d="M130.12,354.106l-5.722,1.141,2.2,9.786,5.675-1.338Z" transform="translate(-124.398 -354.106)" fill="#fff" fill-rule="evenodd"/></g><g transform="translate(21.323 103.093)"><path d="M144.916,393.979l-4.975,3.04,5.408,8.5,4.833-3.268Z" transform="translate(-123.704 -362.68)" fill="#fff" fill-rule="evenodd"/><path d="M140.862,386.51l-5.211,2.629,4.8,8.844,5.09-2.857Z" transform="translate(-128.219 -370.54)" fill="#fff" fill-rule="evenodd"/><path d="M137.418,378.729l-5.388,2.249s.88,2.354,1.923,4.634c1.071,2.278,2.141,4.542,2.141,4.542l5.289-2.447s-1.041-2.219-2.089-4.437C138.276,381.038,137.418,378.729,137.418,378.729Z" transform="translate(-132.03 -378.729)" fill="#fff" fill-rule="evenodd"/></g><g transform="translate(47.708 149.071)"><path d="M160.5,413.887l-3.951,4.3,7.717,6.535,3.692-4.528Z" transform="translate(-132.606 -387.706)" fill="#fff" fill-rule="evenodd"/><path d="M154.762,407.765,150.4,411.64s1.6,1.944,3.343,3.783c1.794,1.777,3.586,3.555,3.586,3.555l4.142-4.117s-1.74-1.718-3.473-3.434C156.312,409.649,154.762,407.765,154.762,407.765Z" transform="translate(-139.082 -394.149)" fill="#fff" fill-rule="evenodd"/><path d="M149.588,401.131l-4.7,3.45s5.956,8.144,6.131,8.006l4.513-3.692C155.364,409.031,149.588,401.131,149.588,401.131Z" transform="translate(-144.886 -401.131)" fill="#fff" fill-rule="evenodd"/></g><g transform="translate(85.785 186.403)"><path d="M180.947,428.175l-2.461,5.287s2.317,1.018,4.643,2.02c2.317,1.034,4.657,1.96,4.657,1.96l2.151-5.424c.008,0-2.272-.9-4.505-1.884S180.947,428.175,180.947,428.175Z" transform="translate(-147.601 -410.001)" fill="#fff" fill-rule="evenodd"/><path d="M173.759,424.125l-3.062,4.969s2.126,1.353,4.361,2.568l4.421,2.494L182.207,429s-2.128-1.2-4.246-2.4C175.818,425.432,173.759,424.125,173.759,424.125Z" transform="translate(-155.799 -414.263)" fill="#fff" fill-rule="evenodd"/><path d="M166.925,419.32,163.438,424l8.251,5.79,3.259-4.848Z" transform="translate(-163.438 -419.32)" fill="#fff" fill-rule="evenodd"/></g><g transform="translate(133.602 211.171)"><path d="M204.7,435.5l-.911,5.761,9.977,1.351.644-5.8Z" transform="translate(-168.793 -427.065)" fill="#fff" fill-rule="evenodd"/><path d="M196.555,433.8l-1.4,5.669L205,441.625l1.125-5.712Z" transform="translate(-177.874 -428.849)" fill="#fff" fill-rule="evenodd"/><path d="M188.643,431.388l-1.907,5.517s2.4.774,4.8,1.549c2.393.807,4.825,1.474,4.825,1.474l1.611-5.591c.008-.016-2.354-.669-4.671-1.443C190.968,432.147,188.643,431.388,188.643,431.388Z" transform="translate(-186.736 -431.388)" fill="#fff" fill-rule="evenodd"/></g><g transform="translate(186.645 220.255)"><path d="M229.874,436.939l.532,5.8s2.508-.152,5.006-.517l5.006-.638-.821-5.773s-2.43.3-4.862.624C232.32,436.789,229.874,436.939,229.874,436.939Z" transform="translate(-194.38 -435.814)" fill="#fff" fill-rule="evenodd"/><path d="M221.323,436.918l.045,5.835s2.506.031,5.028-.107c2.516-.092,5.03-.183,5.03-.183l-.3-5.821s-2.455.092-4.9.168C223.778,436.949,221.323,436.918,221.323,436.918Z" transform="translate(-203.379 -434.942)" fill="#fff" fill-rule="evenodd"/><path d="M213.021,436.488l-.441,5.821,10.059.546.168-5.833Z" transform="translate(-212.58 -435.105)" fill="#fff" fill-rule="evenodd"/></g><g transform="translate(239.642 205.154)"><path d="M254.737,432.483l2.241,5.394a49.982,49.982,0,0,0,4.665-2.007c2.286-1.108,4.573-2.2,4.573-2.2l-2.607-5.211s-2.194,1.049-4.4,2.1A42.059,42.059,0,0,1,254.737,432.483Z" transform="translate(-221.211 -428.456)" fill="#fff" fill-rule="evenodd"/><path d="M246.69,434.773l1.619,5.607s2.461-.609,4.846-1.459c2.4-.821,4.794-1.642,4.794-1.642l-1.96-5.5s-2.317.79-4.626,1.58C249.069,434.2,246.69,434.773,246.69,434.773Z" transform="translate(-229.68 -424.959)" fill="#fff" fill-rule="evenodd"/><path d="M238.4,436.238l1.063,5.728s2.492-.351,4.955-.975c2.461-.548,4.922-1.108,4.922-1.108l-1.367-5.683s-2.385.548-4.772,1.094C240.834,435.887,238.4,436.238,238.4,436.238Z" transform="translate(-238.402 -422.411)" fill="#fff" fill-rule="evenodd"/></g><g transform="translate(288.956 172.471)"><path d="M275.662,419.962l4.3,3.934c.2.166,6.586-7.855,6.58-7.855l-4.657-3.51S275.845,420.128,275.662,419.962Z" transform="translate(-248.502 -412.532)" fill="#fff" fill-rule="evenodd"/><path d="M269.443,425.137l3.616,4.587c.138.183,7.764-6.654,7.764-6.654l-4.01-4.238S269.589,425.3,269.443,425.137Z" transform="translate(-255.047 -405.902)" fill="#fff" fill-rule="evenodd"/><path d="M262.429,429.292l2.908,5.043a42.568,42.568,0,0,0,4.376-2.611c2.128-1.4,4.263-2.8,4.263-2.8l-3.3-4.8s-2.036,1.324-4.072,2.66A39.769,39.769,0,0,1,262.429,429.292Z" transform="translate(-262.429 -400.33)" fill="#fff" fill-rule="evenodd"/></g><g transform="translate(326.768 124.608)"><path d="M287.252,398.739l5.72,1.17.866-5.1c.38-2.567.517-5.2.517-5.2l-5.819-.4s-.121,2.4-.47,4.786C287.654,396.369,287.252,398.739,287.252,398.739Z" transform="translate(-274.116 -389.212)" fill="#fff" fill-rule="evenodd"/><path d="M284.738,406.575l5.388,2.235s.973-2.371,1.8-4.8c.852-2.416,1.7-4.846,1.7-4.846l-5.576-1.687s-.813,2.295-1.625,4.575C285.651,404.342,284.738,406.575,284.738,406.575Z" transform="translate(-276.762 -380.517)" fill="#fff" fill-rule="evenodd"/><path d="M280.852,413.7l4.924,3.13s1.352-2.173,2.6-4.421,2.506-4.482,2.506-4.482l-5.211-2.629s-1.186,2.112-2.37,4.226S280.852,413.7,280.852,413.7Z" transform="translate(-280.852 -372.282)" fill="#fff" fill-rule="evenodd"/></g><g transform="translate(318.244 78.008)"><path d="M284.858,376.5l3.45-4.7a9.928,9.928,0,0,0-1.367-1c-.866-.532-2.022-1.232-3.169-1.944-2.377-1.26-4.831-2.354-4.831-2.354l-2.241,5.379s2.141.987,4.224,2.067c1,.624,2,1.231,2.75,1.687A9.831,9.831,0,0,1,284.858,376.5Z" transform="translate(-276.699 -366.507)" fill="#fff" fill-rule="evenodd"/><path d="M288.534,383.527l5.213-2.613s-.289-.608-.729-1.521c-.548-.866-1.26-2.02-1.991-3.175A42.976,42.976,0,0,0,287.7,371.9l-4.345,3.875C283.506,375.656,288.961,383.254,288.534,383.527Z" transform="translate(-269.695 -360.827)" fill="#fff" fill-rule="evenodd"/><path d="M288.7,391.052l5.819-.38s-.289-2.629-.579-5.273c-.569-2.613-1.139-5.242-1.139-5.242l-5.622,1.55s.5,2.309,1,4.62C288.443,388.7,288.7,391.052,288.7,391.052Z" transform="translate(-265.668 -352.14)" fill="#fff" fill-rule="evenodd"/></g><g transform="translate(265.747 73.953)"><path d="M262.608,372.008l-1.923-5.5c0-.014-2.455.852-4.854,1.87l-4.71,2.188,2.643,5.211s2.188-1.018,4.361-2.036C260.345,372.812,262.608,372.008,262.608,372.008Z" transform="translate(-251.121 -362.452)" fill="#fff" fill-rule="evenodd"/><path d="M270.422,370.438l-.456-5.818s-2.613.166-5.2.607a35.2,35.2,0,0,0-5.121.987l1.307,5.683a33.106,33.106,0,0,1,4.71-.911C268.037,370.575,270.422,370.438,270.422,370.438Z" transform="translate(-242.146 -364.439)" fill="#fff" fill-rule="evenodd"/><path d="M277.978,371.671l1.324-5.7c0,.014-2.6-.517-5.213-.956-2.621-.244-5.25-.486-5.25-.486l-.273,5.835s2.371.213,4.747.441C275.655,371.2,277.978,371.671,277.978,371.671Z" transform="translate(-232.762 -364.531)" fill="#fff" fill-rule="evenodd"/></g><g transform="translate(228.559 86.284)"><path d="M242.915,386.562l-5.059-2.917L233,392.731l5.34,2.356Z" transform="translate(-233.002 -356.746)" fill="#fff" fill-rule="evenodd"/><path d="M248.292,380.328l-4.238-4.012s-1.786,1.884-3.434,3.906a37.887,37.887,0,0,0-3.183,4.117l4.741,3.4a33.5,33.5,0,0,1,2.941-3.8C246.636,382.075,248.292,380.328,248.292,380.328Z" transform="translate(-228.335 -364.459)" fill="#fff" fill-rule="evenodd"/><path d="M255.043,375.436l-3.183-4.893a80.486,80.486,0,0,0-8.312,6.229l3.8,4.421A75.642,75.642,0,0,1,255.043,375.436Z" transform="translate(-221.905 -370.539)" fill="#fff" fill-rule="evenodd"/></g><g transform="translate(221.031 130.125)"><path d="M235.212,409.393l-5.819.427,1.277,10.192,5.743-1Z" transform="translate(-229.272 -373.49)" fill="#fff" fill-rule="evenodd"/><path d="M235.707,401.328l-5.788-.7c-.447-.045-.585,10.27-.585,10.27l5.835.062S235.274,401.281,235.707,401.328Z" transform="translate(-229.334 -382.715)" fill="#fff" fill-rule="evenodd"/><path d="M238.622,393.753l-5.529-1.853s-.835,2.432-1.671,4.877a30.4,30.4,0,0,0-1.125,5.014l5.7,1.231a27.274,27.274,0,0,1,1.055-4.71C237.831,396.032,238.622,393.753,238.622,393.753Z" transform="translate(-228.32 -391.9)" fill="#fff" fill-rule="evenodd"/></g><g transform="translate(224.235 183.275)"><path d="M242.595,433.505l-5.088,2.871,5.347,8.585,4.9-3.161Z" transform="translate(-223.936 -401.264)" fill="#fff" fill-rule="evenodd"/><path d="M239.077,425.828l-5.4,2.219a41.966,41.966,0,0,0,1.937,4.694c1.141,2.266,2.295,4.528,2.295,4.528l5.219-2.6s-1.1-2.173-2.2-4.345A37.49,37.49,0,0,1,239.077,425.828Z" transform="translate(-227.969 -409.343)" fill="#fff" fill-rule="evenodd"/><path d="M236.564,417.8l-5.669,1.412c.008,0,2.508,9.921,2.826,9.8l5.517-1.884C238.92,427.217,236.564,417.8,236.564,417.8Z" transform="translate(-230.895 -417.796)" fill="#fff" fill-rule="evenodd"/></g><g transform="translate(247.688 230.345)"><path d="M257.844,453.693l-4.1,4.162,3.555,3.555c1.884,1.671,3.768,3.343,3.768,3.343l3.9-4.345s-1.839-1.625-3.67-3.237C259.57,455.425,257.844,453.693,257.844,453.693Z" transform="translate(-230.304 -427.088)" fill="#fff" fill-rule="evenodd"/><path d="M252.182,447.438l-4.437,3.785s6.533,7.672,6.685,7.536l4.246-4C258.526,454.9,252.182,447.438,252.182,447.438Z" transform="translate(-236.615 -433.67)" fill="#fff" fill-rule="evenodd"/><path d="M247.086,440.73l-4.764,3.389,6.026,8.1,4.573-3.616Z" transform="translate(-242.322 -440.73)" fill="#fff" fill-rule="evenodd"/></g><g transform="translate(284.527 268.91)"><path d="M277.592,469.313l-2.947,5.03s2.18,1.26,4.353,2.523c2.2,1.2,4.406,2.385,4.406,2.385l2.75-5.152s-2.165-1.168-4.331-2.323C279.711,470.545,277.592,469.313,277.592,469.313Z" transform="translate(-245.144 -449.214)" fill="#fff" fill-rule="evenodd"/><path d="M270.591,464.709l-3.364,4.77,8.347,5.652,3.116-4.921Z" transform="translate(-252.95 -454.059)" fill="#fff" fill-rule="evenodd"/><path d="M264.009,459.52,260.271,464s1.929,1.595,3.928,3.13c1.983,1.55,3.973,3.1,3.973,3.1l3.54-4.649-3.875-3.009C265.893,461.084,264.009,459.52,264.009,459.52Z" transform="translate(-260.271 -459.52)" fill="#fff" fill-rule="evenodd"/></g><g transform="translate(329.928 297.521)"><path d="M300.453,480.041l-1.923,5.517,4.71,1.671c2.4.743,4.786,1.474,4.786,1.474l1.749-5.562s-2.34-.729-4.7-1.443C302.77,480.876,300.453,480.041,300.453,480.041Z" transform="translate(-265.408 -466.534)" fill="#fff" fill-rule="evenodd"/><path d="M292.6,476.977l-2.25,5.377s2.317.958,4.643,1.915c2.309.973,4.651,1.839,4.651,1.839l2.067-5.455s-2.3-.85-4.567-1.808C294.874,477.9,292.6,476.977,292.6,476.977Z" transform="translate(-274.014 -469.759)" fill="#fff" fill-rule="evenodd"/><path d="M284.99,473.46l-2.6,5.226,9.086,4.255,2.4-5.318Z" transform="translate(-282.392 -473.46)" fill="#fff" fill-rule="evenodd"/></g><g transform="translate(380.266 316.452)"><path d="M324.909,486.459l-.956,5.761,9.9,1.549.759-5.776Z" transform="translate(-288.99 -478.711)" fill="#fff" fill-rule="evenodd"/><path d="M316.665,484.816l-1.307,5.7,9.819,2.036,1.108-5.728Z" transform="translate(-298.037 -480.44)" fill="#fff" fill-rule="evenodd"/><path d="M308.529,482.684l-1.611,5.607s2.4.714,4.831,1.322c2.416.624,4.846,1.246,4.846,1.246l1.428-5.652s-2.371-.624-4.755-1.231S308.529,482.684,308.529,482.684Z" transform="translate(-306.918 -482.684)" fill="#fff" fill-rule="evenodd"/></g><g transform="translate(433.171 326.556)"><path d="M350.063,488.577l.318,5.819,10.059-.926-.64-5.8C359.8,487.683,350.063,488.577,350.063,488.577Z" transform="translate(-314.417 -487.545)" fill="#fff" fill-rule="evenodd"/><path d="M341.592,488.177l-.168,5.835s2.508.168,5.03.152c2.506-.059,5.029-.123,5.029-.123l-.092-5.819s-2.461.045-4.907.107C344.037,488.345,341.592,488.177,341.592,488.177Z" transform="translate(-323.509 -487.007)" fill="#fff" fill-rule="evenodd"/><path d="M333.288,487.607l-.593,5.8,5,.517a47.624,47.624,0,0,0,5,.335l.365-5.821a45.211,45.211,0,0,1-4.893-.333C335.72,487.851,333.288,487.607,333.288,487.607Z" transform="translate(-332.695 -487.607)" fill="#fff" fill-rule="evenodd"/></g><g transform="translate(486.351 311.21)"><path d="M374.85,484.764l2.475,5.287c.107.258,9.012-4.909,9.012-4.909l-2.994-5.012C383.341,480.144,374.969,485.007,374.85,484.764Z" transform="translate(-341.511 -480.13)" fill="#fff" fill-rule="evenodd"/><path d="M366.884,486.879l1.64,5.593,4.893-1.4a42.957,42.957,0,0,0,4.772-1.825l-2.1-5.439a39.944,39.944,0,0,1-4.526,1.734C369.222,486.21,366.884,486.879,366.884,486.879Z" transform="translate(-349.894 -476.258)" fill="#fff" fill-rule="evenodd"/><path d="M358.606,488.059l.93,5.774,9.981-1.839-1.307-5.681Z" transform="translate(-358.606 -473.624)" fill="#fff" fill-rule="evenodd"/></g></g><g transform="translate(370.563)"><path d="M322.022,461.683c2.143,4.983,3.9,9.716,6.17,14.2a126.961,126.961,0,0,0,7.9,12.93c-2.393-6.761-5.061-13.425-7.12-20.284-5.2-17.261-4.922-34.842-1.755-52.382,2.744-15.2,6.063-30.306,9.148-45.453a7.854,7.854,0,0,1,.349-1.139c2.182,3.85,4.454,7.863,6.724,11.865.234-.135.464-.289.7-.425-.708-7.163-1.666-14.314-2.075-21.493-.813-14.3,1.426-28.254,5.3-41.988,2.726-9.679,5.78-19.266,8.054-29.052,2.256-9.648,3.715-19.494,5.552-29.432a15.382,15.382,0,0,1,1.718,1.094c16.167,12.953,27.531,28.937,30.891,49.806,2.962,18.31-1.018,35.5-9,51.9-3.038,6.252-6.761,12.171-10.34,18.537,10.978-4.663,18.521-13.014,25.489-22.016.3.32.562.456.562.608-.138,13.63-.076,27.258-.486,40.888-.242,8.31-3.479,15.847-8.253,22.548-4.337,6.077-9.115,11.822-13.7,17.716-.568.729-1.168,1.443-2.173,2.674,9.564-2.461,16.3-7.992,22.786-15.52-.486,5.416-.79,9.944-1.307,14.457-1.336,11.5-2.241,23.065-4.285,34.429-2.918,16.235-12.081,29.438-22.345,41.921-1.162,1.42-2.352,2.826-3.516,4.246a7.91,7.91,0,0,0-.556,1.139c6.221-2.8,10.644-7.028,15.186-11.561-.458,4.458-.866,8.912-1.367,13.363-1.552,13.546-3.343,27.039-7.569,40.092a88.266,88.266,0,0,1-20.42,34.253c-.585.6-1.11,1.262-1.991,2.266,7.4-.835,12.838-4.581,18.217-9.17-2.2,30.565-7.477,59.555-29.126,82.953,8.667-1.991,14.055-8.288,20.376-14.747-3.785,14.176-10.014,25.247-24.3,30.335,6.876,4.209,13.872,3.653,20.984,2.651-6.972,4.269-14.457,6.5-22.706,5.737.425,4.558,3.052,8.037,13.051,17.458-4.415-.031-8.875-1.96-19.412-8.493-.79,5.7-1.49,11.221-2.333,16.727q-3.51,23.1-7.126,46.159c-.183,1.17-5.613,4.072-5.767,2.888a41.568,41.568,0,0,1-.2-7.781c1.223-19.874,2.561-39.739,3.746-59.623a13.655,13.655,0,0,0-.9-5.911c-5.349-12.914-10.8-25.875-11.988-39.907-.9-10.521-.653-21.171-.318-31.749.318-10.482,1.383-20.937,2.128-31.423a10.132,10.132,0,0,1,.486-2.551c2.1,9.648,5.326,18.81,10.726,27.145-1.336-5.736-2.826-11.434-4.01-17.193a170.6,170.6,0,0,1-2.545-54.927c3.267-27.039,7.645-53.948,11.549-80.911C321.193,467.038,321.589,464.529,322.022,461.683ZM314.18,775.83c7.255-13.172,52.8-395.431,50.75-411.491-1.24,9.01-2.354,17.792-3.661,26.544-5.523,37.106-11.257,74.187-16.608,111.329q-9.79,68.068-19.052,136.211c-5.244,38.707-9.5,77.526-11.381,116.577C313.9,761.656,314.18,768.326,314.18,775.83Z" transform="translate(-302.19 -259.029)" fill="#fff" fill-rule="evenodd"/><path d="M307.474,505.078a45.734,45.734,0,0,1-1.049,9.665,23.312,23.312,0,0,1-3.653,7.885c4.277,8.516,5.782,24.758,6.3,33.7a4.011,4.011,0,0,1-1.094,2.88,2.032,2.032,0,0,0-.495,1.71,2.063,2.063,0,0,0,1.307,1.58,3.565,3.565,0,0,0,.365.084l3.624-41.672a1.983,1.983,0,1,1,.363.039l-3.633,41.656a2.043,2.043,0,0,0,2.05-1.862,1.982,1.982,0,0,0-.349-1.322,3.757,3.757,0,0,1-.532-2.955c2.05-8.7,6.352-24.454,12.017-32.106,0,0-2.37-2.9-2.37-8.676a40.416,40.416,0,0,1,1.276-9.375l-7.315-.644Z" transform="translate(-301.578 -0.083)" fill="#fff"/><rect width="14.802" height="6.018" transform="translate(21.137 503.67) rotate(-175.02)" fill="#fff"/></g><g transform="translate(531.175 357.217)"><path d="M1422.239,363.868l147.746-147.2h-221.9l33.078,52.924-2.481,74.7,25.542-25.941Z" transform="translate(-1348.09 -216.673)" fill="none" stroke="#fff" stroke-width="0.8"/><path d="M1380.947,251.133l-5.238-14.334-20.628,38.819" transform="translate(-1324.44 -148.593)" fill="none" stroke="#fff" stroke-width="0.8"/><path d="M1373.778,304.025,1543.13,216.7l-187.408,52.67" transform="translate(-1322.273 -216.577)" fill="none" stroke="#fff" stroke-width="0.8"/></g></g></g></g></svg>