<svg xmlns="http://www.w3.org/2000/svg" width="1080.847" height="329.494" viewBox="0 0 1080.847 329.494"><g transform="translate(-97.562 -331.966)"><g transform="translate(97.562 331.966)"><g transform="translate(0 124.131)"><path d="M134.291,531.033h21V388.947H147.2q-12.026,0-20.445,4.129A40.524,40.524,0,0,0,112.975,403.7a40.974,40.974,0,0,0-7.765,14.753c-1.607,5.5-2.287,13.949-2.416,15.477H96.065l-.249-53.645H247.811l-.685,53.766H240.88c.081-1.571.2-10.1-1.4-15.6a41.1,41.1,0,0,0-7.765-14.753,40.624,40.624,0,0,0-13.776-10.625q-8.421-4.124-20.447-4.129H189.4V531.033h20.991v6.511h-76.1l0-6.511Z" transform="translate(-95.816 -380.285)" fill="#292929"/><path d="M251.194,406.014H235.45v-6.3h38.486v6.3H259.5L217.3,510.229q-2.627,6.5-5.686,13.321a54.2,54.2,0,0,1-7.654,12.362,38.727,38.727,0,0,1-10.932,9.13Q186.682,548.6,177.5,548.6a27.613,27.613,0,0,1-9.075-1.466,22.874,22.874,0,0,1-7.546-4.293,19.776,19.776,0,0,1-7-15.623,25.2,25.2,0,0,1,.766-6.187,15.524,15.524,0,0,1,2.517-5.45,12.985,12.985,0,0,1,4.482-3.882,13.433,13.433,0,0,1,6.45-1.469q7.651,0,10.5,4.088a15.639,15.639,0,0,1,2.842,9.12,15.873,15.873,0,0,1-.763,5.767,10.805,10.805,0,0,0-.766,4.3,6.649,6.649,0,0,0,1.529,4.5,5.724,5.724,0,0,0,4.593,1.785,11.109,11.109,0,0,0,7-2.834,35.1,35.1,0,0,0,6.669-7.441,81.123,81.123,0,0,0,6.014-10.485,93.959,93.959,0,0,0,4.812-11.956l-44.61-101.065H150.17v-6.3h66.259v6.3H200.686l26.242,62.484Z" transform="translate(-10.003 -343.233)" fill="#292929"/><path d="M199.986,541.533h15.744l.115-134.042H200.1v-5.857h13.557q16.838,0,33.676-1.171V415.1h.438A27.885,27.885,0,0,1,259.911,403q7.543-3.706,19.132-3.7a51.553,51.553,0,0,1,21.213,4.1,44.132,44.132,0,0,1,15.308,11.027,47.619,47.619,0,0,1,9.294,16.01,58.705,58.705,0,0,1,0,38.056,47.561,47.561,0,0,1-9.294,16.008,43.988,43.988,0,0,1-15.308,11.027,51.561,51.561,0,0,1-21.213,4.1q-10.935,0-18.588-3.024a28.978,28.978,0,0,1-12.682-9.665h-.438l-.115,54.606h15.744v5.855H199.983v-5.857Zm93.6-108.474a47.837,47.837,0,0,0-2.406-13.755,20.153,20.153,0,0,0-6.56-9.472q-4.483-3.511-12.574-3.512a24.112,24.112,0,0,0-8.09,1.564,19.07,19.07,0,0,0-8.2,6.248q-3.83,4.682-6.452,13.17t-2.625,22.158q0,13.859,1.968,22.344T254,484.882a16.541,16.541,0,0,0,7.984,6.145,30.805,30.805,0,0,0,10.057,1.564q8.088,0,12.574-3.514a20.114,20.114,0,0,0,6.56-9.462,47.93,47.93,0,0,0,2.406-13.762q.329-7.806.327-16.394T293.585,433.058Z" transform="translate(68.642 -342.814)" fill="#292929"/><path d="M288.9,446.4v8.655a106.929,106.929,0,0,0,.911,13.673,41.9,41.9,0,0,0,3.652,12.779,24.5,24.5,0,0,0,7.909,9.46q5.169,3.721,13.892,3.72,12.774,0,21.088-6.639a47.836,47.836,0,0,0,13.385-17.505l5.474,2.413q-6.084,15.094-17.74,22.637t-27.481,7.545a61.2,61.2,0,0,1-21.5-3.623,45.8,45.8,0,0,1-27.378-26.661,56.8,56.8,0,0,1-3.85-21.422,54.683,54.683,0,0,1,3.85-20.623,47.455,47.455,0,0,1,10.853-16.392A50.773,50.773,0,0,1,288.7,403.652a56.465,56.465,0,0,1,21.294-3.922,53.308,53.308,0,0,1,18.453,3.118,43.724,43.724,0,0,1,14.906,9.056,41.565,41.565,0,0,1,10.037,14.681,51.049,51.049,0,0,1,3.647,19.818H288.9Zm36.5-6.038v-9.255a56.6,56.6,0,0,0-.708-8.745,28.841,28.841,0,0,0-2.535-8.252,15.827,15.827,0,0,0-5.072-6.036,13.983,13.983,0,0,0-8.313-2.313q-7.1,0-10.953,3.621a22.753,22.753,0,0,0-5.78,8.847,42.756,42.756,0,0,0-2.435,11.267q-.509,6.036-.71,10.867h36.506Z" transform="translate(159.081 -343.251)" fill="#292929"/><path d="M334.43,525.371h15.749l.128-85.6H334.558V433.3H348.12c11.228,0,22.32-1.844,33.551-2.705v94.773h15.741v6.478H334.43ZM354,388.921a16.9,16.9,0,1,1-5.026,12.03A16.384,16.384,0,0,1,354,388.921Z" transform="translate(280.905 -374.587)" fill="#292929"/><path d="M364.452,463.506h6.09a38.393,38.393,0,0,0,2.538,12.871,36.331,36.331,0,0,0,6.3,10.665,29.464,29.464,0,0,0,9.445,7.343A27.055,27.055,0,0,0,401,497.1a34.887,34.887,0,0,0,7.519-.8,22.794,22.794,0,0,0,6.593-2.515,13.359,13.359,0,0,0,4.67-4.427,12.363,12.363,0,0,0,1.727-6.741,11.084,11.084,0,0,0-4.155-9.156,42.409,42.409,0,0,0-10.261-5.834q-6.085-2.515-13.4-4.921a58.764,58.764,0,0,1-13.4-6.337,36.751,36.751,0,0,1-10.254-9.861q-4.163-5.938-4.155-15.8a30.142,30.142,0,0,1,2.843-13.574,28.391,28.391,0,0,1,7.718-9.661,32.5,32.5,0,0,1,11.37-5.834,48.72,48.72,0,0,1,13.808-1.91q11.365,0,18.475,2.112t13,4.325v25.952H427a32.844,32.844,0,0,0-2.843-10.062,31.244,31.244,0,0,0-5.685-8.444,25.923,25.923,0,0,0-8.123-5.734,24.358,24.358,0,0,0-10.156-2.112,17.526,17.526,0,0,0-10.46,3.118q-4.361,3.116-4.361,9.35a9.456,9.456,0,0,0,4.162,8.05,43.584,43.584,0,0,0,10.254,5.331q6.085,2.315,13.4,4.726a58.587,58.587,0,0,1,13.4,6.34,35.6,35.6,0,0,1,10.254,10.06q4.152,6.142,4.164,15.989a30.5,30.5,0,0,1-3.453,14.791,33.8,33.8,0,0,1-9.236,10.767,40.905,40.905,0,0,1-13.1,6.639A51.635,51.635,0,0,1,400.2,503.14a79.255,79.255,0,0,1-20.812-2.515q-9.246-2.515-14.921-4.527V463.506Z" transform="translate(328.304 -343.251)" fill="#292929"/><path d="M402.014,531.641h15.749V390.456H402.014v-9.611H416.2c11.228,0,14.989.8,31.313,0l1.745,66.3h.436a36.424,36.424,0,0,1,14.433-12.934,46.424,46.424,0,0,1,20.553-4.716c11.078,0,19.909,3.352,26.9,9.245s10.5,14.8,10.5,26.73v66.175h15.741v6.463H474.839v-6.463h15.749V461.158a32.169,32.169,0,0,0-1.423-10.349,17.377,17.377,0,0,0-3.719-6.466,11.835,11.835,0,0,0-5.464-3.233,24.452,24.452,0,0,0-6.45-.861,20.1,20.1,0,0,0-8.972,2.155,24.839,24.839,0,0,0-7.76,6.036,30.488,30.488,0,0,0-5.472,9.376,34.161,34.161,0,0,0-2.073,12.179v61.651H465v6.463H402.017v-6.468Z" transform="translate(382.448 -380.845)" fill="#292929"/></g><g transform="translate(548.134)"><path d="M321.981,450.831c1.253,2.917,2.277,5.686,3.61,8.311a74.542,74.542,0,0,0,4.629,7.571c-1.408-3.958-2.963-7.855-4.172-11.878-3.046-10.109-2.883-20.4-1.024-30.672,1.6-8.907,3.551-17.75,5.356-26.623a4.3,4.3,0,0,1,.206-.668c1.271,2.259,2.607,4.611,3.93,6.95.144-.08.276-.168.41-.248-.41-4.19-.97-8.381-1.212-12.582a74.639,74.639,0,0,1,3.1-24.594c1.6-5.668,3.388-11.282,4.714-17.015,1.328-5.65,2.182-11.416,3.26-17.234a10.426,10.426,0,0,1,1.006.642c9.467,7.589,16.123,16.95,18.09,29.169,1.736,10.723-.6,20.793-5.268,30.4-1.777,3.664-3.958,7.128-6.06,10.854,6.434-2.734,10.846-7.618,14.931-12.894.178.188.33.268.33.356-.08,7.981-.046,15.963-.284,23.944a23.98,23.98,0,0,1-4.833,13.206c-2.543,3.559-5.338,6.921-8.025,10.374-.33.428-.686.846-1.271,1.565,5.606-1.442,9.547-4.68,13.348-9.085-.284,3.169-.464,5.82-.766,8.461-.784,6.736-1.318,13.508-2.512,20.164-1.707,9.511-7.074,17.244-13.087,24.55-.676.838-1.38,1.656-2.055,2.491a4.232,4.232,0,0,0-.33.668c3.649-1.645,6.238-4.121,8.9-6.772-.268,2.607-.506,5.214-.8,7.821-.908,7.938-1.957,15.834-4.43,23.477A51.74,51.74,0,0,1,339.7,531.6c-.348.348-.65.738-1.166,1.326,4.335-.487,7.52-2.687,10.671-5.374-1.292,17.9-4.379,34.881-17.059,48.584,5.073-1.166,8.231-4.858,11.932-8.641-2.213,8.3-5.862,14.787-14.238,17.77,4.031,2.465,8.123,2.135,12.291,1.55a21.182,21.182,0,0,1-13.294,3.363c.25,2.669,1.787,4.706,7.644,10.225-2.589-.018-5.2-1.148-11.37-4.974-.464,3.337-.874,6.565-1.362,9.8q-2.054,13.519-4.173,27.031c-.106.686-3.29,2.385-3.383,1.689a25.374,25.374,0,0,1-.116-4.557c.722-11.638,1.5-23.276,2.2-34.914a8.046,8.046,0,0,0-.523-3.463c-3.133-7.564-6.328-15.153-7.022-23.374a159.528,159.528,0,0,1-.186-18.585c.186-6.14.807-12.262,1.243-18.4a6.094,6.094,0,0,1,.284-1.5,47.044,47.044,0,0,0,6.285,15.893c-.784-3.355-1.656-6.692-2.349-10.062a99.943,99.943,0,0,1-1.493-32.168c1.911-15.834,4.474-31.593,6.762-47.385C321.493,453.962,321.72,452.494,321.981,450.831ZM317.391,634.8c4.245-7.713,30.92-231.573,29.718-240.978-.73,5.276-1.38,10.421-2.146,15.545-3.239,21.729-6.594,43.447-9.725,65.194q-5.736,39.869-11.156,79.767c-3.069,22.673-5.562,45.4-6.666,68.273C317.22,626.5,317.391,630.405,317.391,634.8Z" transform="translate(-310.371 -332.15)" fill="#292929" fill-rule="evenodd"/><path d="M313.4,446.83a26.822,26.822,0,0,1-.614,5.658,13.679,13.679,0,0,1-2.143,4.619c2.509,4.985,3.389,14.5,3.693,19.735a2.34,2.34,0,0,1-.642,1.681,1.2,1.2,0,0,0-.291,1.006,1.222,1.222,0,0,0,.766.923c.08.018.142.036.214.046l2.125-24.4a1.186,1.186,0,1,1,.214.018l-2.128,24.4a1.2,1.2,0,0,0,1.2-1.1,1.171,1.171,0,0,0-.2-.773,2.15,2.15,0,0,1-.312-1.725c1.2-5.1,3.719-14.328,7.037-18.8a8.4,8.4,0,0,1-1.387-5.083,23.633,23.633,0,0,1,.748-5.49l-4.289-.382Z" transform="translate(-309.946 -151.094)" fill="#292929"/><rect width="8.672" height="3.528" transform="matrix(-0.996, -0.087, 0.087, -0.996, 12.348, 294.909)" fill="#292929"/></g><g transform="translate(639.192 23.276)"><path d="M347.675,349.136l-3.381.462s.134,1.467.407,2.909c.255,1.441.5,2.893.5,2.893l3.368-.58s-.25-1.423-.487-2.839C347.811,350.57,347.675,349.136,347.675,349.136Z" transform="translate(-342.713 -328.609)" fill="#292929" fill-rule="evenodd"/><path d="M347.276,345.158l-3.407.258s.111,1.467.217,2.927.312,2.919.312,2.919l3.4-.374s-.211-1.423-.309-2.855S347.276,345.158,347.276,345.158Z" transform="translate(-343.384 -334.889)" fill="#292929" fill-rule="evenodd"/><path d="M347.1,341.176l-3.417.044.15,5.875,3.409-.17Z" transform="translate(-343.681 -341.176)" fill="#292929" fill-rule="evenodd"/><g transform="translate(3.319 30.778)"><path d="M350.317,360.819l-3.234,1.086s.467,1.4.934,2.785c.441,1.405,1.019,2.759,1.019,2.759l3.2-1.209s-.567-1.326-.993-2.7C350.776,362.181,350.317,360.819,350.317,360.819Z" transform="translate(-341.629 -340.942)" fill="#292929" fill-rule="evenodd"/><path d="M349.2,356.993l-3.3.872,1.581,5.658,3.262-1Z" transform="translate(-343.495 -346.982)" fill="#292929" fill-rule="evenodd"/><path d="M348.313,353.111l-3.345.668,1.282,5.73,3.327-.781Z" transform="translate(-344.968 -353.111)" fill="#292929" fill-rule="evenodd"/></g><g transform="translate(12.492 60.372)"><path d="M355.129,371.695l-2.919,1.779,3.167,4.974,2.832-1.914Z" transform="translate(-342.707 -353.365)" fill="#292929" fill-rule="evenodd"/><path d="M353.263,368.214l-3.051,1.54,2.808,5.178L356,373.258Z" transform="translate(-345.862 -358.861)" fill="#292929" fill-rule="evenodd"/><path d="M351.674,364.587l-3.149,1.318s.516,1.38,1.122,2.713c.627,1.336,1.253,2.661,1.253,2.661l3.1-1.434s-.609-1.3-1.22-2.6C352.182,365.941,351.674,364.587,351.674,364.587Z" transform="translate(-348.525 -364.587)" fill="#292929" fill-rule="evenodd"/></g><g transform="translate(27.939 87.297)"><path d="M362.266,380.974l-2.313,2.517,4.521,3.827,2.161-2.654Z" transform="translate(-345.93 -365.641)" fill="#292929" fill-rule="evenodd"/><path d="M359.639,378.12l-2.553,2.269s.941,1.137,1.957,2.215l2.1,2.084,2.424-2.411s-1.021-1.006-2.035-2.011C360.547,379.224,359.639,378.12,359.639,378.12Z" transform="translate(-350.456 -370.146)" fill="#292929" fill-rule="evenodd"/><path d="M357.269,375.028l-2.754,2.019s3.489,4.771,3.592,4.688l2.646-2.161C360.655,379.657,357.269,375.028,357.269,375.028Z" transform="translate(-354.515 -375.028)" fill="#292929" fill-rule="evenodd"/></g><g transform="translate(50.237 109.16)"><path d="M371.618,387.633l-1.442,3.1s1.351.6,2.713,1.184c1.351.6,2.734,1.148,2.734,1.148l1.253-3.174s-1.326-.526-2.633-1.1S371.618,387.633,371.618,387.633Z" transform="translate(-352.088 -376.99)" fill="#292929" fill-rule="evenodd"/><path d="M368.337,385.745l-1.792,2.909s1.248.792,2.553,1.5c1.295.73,2.594,1.457,2.594,1.457l1.591-3.015s-1.243-.7-2.486-1.405C369.547,386.511,368.337,385.745,368.337,385.745Z" transform="translate(-357.821 -379.971)" fill="#292929" fill-rule="evenodd"/><path d="M365.2,383.506l-2.042,2.741,4.83,3.388L369.9,386.8Z" transform="translate(-363.162 -383.506)" fill="#292929" fill-rule="evenodd"/></g><g transform="translate(78.238 123.663)"><path d="M382.5,391.045l-.534,3.373,5.838.792.382-3.4Z" transform="translate(-361.473 -386.107)" fill="#292929" fill-rule="evenodd"/><path d="M378.767,390.255l-.82,3.319,5.758,1.264.663-3.345Z" transform="translate(-367.82 -387.354)" fill="#292929" fill-rule="evenodd"/><path d="M375.137,389.13l-1.117,3.229,2.811.908c1.408.472,2.821.861,2.821.861l.952-3.275c0-.008-1.377-.392-2.741-.846C376.5,389.576,375.137,389.13,375.137,389.13Z" transform="translate(-374.02 -389.13)" fill="#292929" fill-rule="evenodd"/></g><g transform="translate(109.299 128.983)"><path d="M394.126,391.853l.312,3.4s1.467-.09,2.932-.3c1.462-.188,2.932-.374,2.932-.374l-.482-3.383s-1.424.178-2.847.366C395.56,391.765,394.126,391.853,394.126,391.853Z" transform="translate(-373.338 -391.193)" fill="#292929" fill-rule="evenodd"/><path d="M390.141,391.74l.028,3.417s1.467.018,2.945-.062l2.948-.108-.178-3.407s-1.439.054-2.868.1C391.577,391.758,390.141,391.74,390.141,391.74Z" transform="translate(-379.63 -390.582)" fill="#292929" fill-rule="evenodd"/><path d="M386.325,391.508l-.26,3.407,5.893.32.1-3.417Z" transform="translate(-386.065 -390.696)" fill="#292929" fill-rule="evenodd"/></g><g transform="translate(140.338 120.138)"><path d="M405.714,390.122l1.315,3.159s1.4-.508,2.731-1.176c1.341-.65,2.679-1.289,2.679-1.289l-1.527-3.053-2.576,1.23A24.645,24.645,0,0,1,405.714,390.122Z" transform="translate(-386.082 -387.763)" fill="#292929" fill-rule="evenodd"/><path d="M401.964,391.068l.947,3.283s1.444-.356,2.839-.856c1.405-.48,2.808-.962,2.808-.962l-1.148-3.221-2.71.926C403.357,390.73,401.964,391.068,401.964,391.068Z" transform="translate(-392.002 -385.317)" fill="#292929" fill-rule="evenodd"/><path d="M398.1,391.635l.624,3.355s1.457-.206,2.9-.57c1.444-.322,2.883-.65,2.883-.65l-.8-3.329-2.793.642C399.524,391.429,398.1,391.635,398.1,391.635Z" transform="translate(-398.101 -383.535)" fill="#292929" fill-rule="evenodd"/></g><g transform="translate(169.215 101.001)"><path d="M415.467,384.692,417.986,387c.116.1,3.858-4.6,3.853-4.6l-2.728-2.055S415.575,384.79,415.467,384.692Z" transform="translate(-399.561 -380.342)" fill="#292929" fill-rule="evenodd"/><path d="M412.568,386.971l2.117,2.687c.08.108,4.549-3.9,4.549-3.9l-2.349-2.483S412.656,387.069,412.568,386.971Z" transform="translate(-404.138 -375.707)" fill="#292929" fill-rule="evenodd"/><path d="M409.3,388.77l1.7,2.955a24.536,24.536,0,0,0,2.563-1.529c1.243-.817,2.5-1.638,2.5-1.638l-1.937-2.813s-1.191.774-2.385,1.558A22.424,22.424,0,0,1,409.3,388.77Z" transform="translate(-409.299 -371.812)" fill="#292929" fill-rule="evenodd"/></g><g transform="translate(191.359 72.972)"><path d="M420.869,375.053l3.35.686.506-2.991c.222-1.5.3-3.043.3-3.043l-3.407-.232s-.07,1.406-.276,2.8C421.1,373.663,420.869,375.053,420.869,375.053Z" transform="translate(-413.176 -369.473)" fill="#292929" fill-rule="evenodd"/><path d="M419.7,378.654l3.154,1.307s.572-1.39,1.055-2.811l1-2.839-3.267-.988L420.685,376C420.231,377.344,419.7,378.654,419.7,378.654Z" transform="translate(-415.027 -363.393)" fill="#292929" fill-rule="evenodd"/><path d="M417.886,381.891l2.883,1.834s.792-1.274,1.521-2.589,1.467-2.625,1.467-2.625l-3.053-1.54s-.7,1.238-1.387,2.473S417.886,381.891,417.886,381.891Z" transform="translate(-417.886 -357.635)" fill="#292929" fill-rule="evenodd"/></g><g transform="translate(186.364 45.681)"><path d="M420.73,364.746,422.749,362a5.6,5.6,0,0,0-.8-.588c-.506-.312-1.184-.719-1.854-1.14-1.393-.738-2.832-1.38-2.832-1.38l-1.313,3.151s1.253.578,2.473,1.209c.588.364,1.171.719,1.612.988A5.583,5.583,0,0,1,420.73,364.746Z" transform="translate(-415.949 -358.89)" fill="#292929" fill-rule="evenodd"/><path d="M422.086,368.21l3.053-1.529s-.168-.356-.428-.89c-.32-.508-.738-1.184-1.163-1.859a25.17,25.17,0,0,0-1.95-2.525l-2.545,2.269C419.141,363.6,422.333,368.05,422.086,368.21Z" transform="translate(-411.048 -354.916)" fill="#292929" fill-rule="evenodd"/><path d="M421.726,371.631l3.407-.222s-.168-1.539-.338-3.087c-.333-1.532-.668-3.069-.668-3.069l-3.291.908s.291,1.354.588,2.705C421.574,370.252,421.726,371.631,421.726,371.631Z" transform="translate(-408.233 -348.843)" fill="#292929" fill-rule="evenodd"/></g><g transform="translate(155.622 43.308)"><path d="M410.759,362.112l-1.127-3.221c0-.008-1.439.5-2.844,1.093-1.38.642-2.759,1.282-2.759,1.282l1.55,3.053s1.282-.6,2.553-1.191C409.43,362.584,410.759,362.112,410.759,362.112Z" transform="translate(-404.028 -356.516)" fill="#292929" fill-rule="evenodd"/><path d="M414.313,361.418l-.268-3.407s-1.532.1-3.046.356a20.419,20.419,0,0,0-3,.578l.766,3.329a19.453,19.453,0,0,1,2.757-.534A27.792,27.792,0,0,1,414.313,361.418Z" transform="translate(-397.752 -357.905)" fill="#292929" fill-rule="evenodd"/><path d="M417.671,362.15l.776-3.334c0,.008-1.522-.3-3.053-.562l-3.074-.284-.16,3.417s1.387.124,2.78.258C416.312,361.874,417.671,362.15,417.671,362.15Z" transform="translate(-391.189 -357.97)" fill="#292929" fill-rule="evenodd"/></g><g transform="translate(133.847 50.529)"><path d="M401.389,368.588l-2.96-1.71-2.844,5.323,3.128,1.38Z" transform="translate(-395.584 -351.127)" fill="#292929" fill-rule="evenodd"/><path d="M404.009,365.812l-2.483-2.349s-1.044,1.1-2.011,2.287a22.347,22.347,0,0,0-1.864,2.411l2.777,1.993a19.6,19.6,0,0,1,1.72-2.226C403.04,366.833,404.009,365.812,404.009,365.812Z" transform="translate(-392.322 -356.519)" fill="#292929" fill-rule="evenodd"/><path d="M407.232,363.637l-1.864-2.865a47.043,47.043,0,0,0-4.869,3.649l2.223,2.589A44.6,44.6,0,0,1,407.232,363.637Z" transform="translate(-387.826 -360.77)" fill="#292929" fill-rule="evenodd"/></g><g transform="translate(129.437 76.201)"><path d="M397.313,378.879l-3.412.25.748,5.97,3.365-.588Z" transform="translate(-393.831 -357.852)" fill="#292929" fill-rule="evenodd"/><path d="M397.605,375.2l-3.388-.408c-.263-.028-.343,6.014-.343,6.014l3.417.036S397.355,375.176,397.605,375.2Z" transform="translate(-393.874 -364.301)" fill="#292929" fill-rule="evenodd"/><path d="M399.2,371.811l-3.239-1.086s-.49,1.423-.98,2.855a18.165,18.165,0,0,0-.66,2.937l3.337.722a15.972,15.972,0,0,1,.619-2.759C398.737,373.146,399.2,371.811,399.2,371.811Z" transform="translate(-393.167 -370.725)" fill="#292929" fill-rule="evenodd"/></g><g transform="translate(131.317 107.327)"><path d="M400.662,390.117l-2.978,1.681,3.131,5.029,2.87-1.852Z" transform="translate(-389.739 -371.235)" fill="#292929" fill-rule="evenodd"/><path d="M399.061,386.539l-3.164,1.3a24.891,24.891,0,0,0,1.135,2.749c.668,1.326,1.344,2.651,1.344,2.651l3.058-1.521-1.289-2.543A22.5,22.5,0,0,1,399.061,386.539Z" transform="translate(-392.56 -376.884)" fill="#292929" fill-rule="evenodd"/><path d="M397.919,382.795l-3.316.828s1.467,5.81,1.656,5.74l3.229-1.1A55.04,55.04,0,0,1,397.919,382.795Z" transform="translate(-394.603 -382.795)" fill="#292929" fill-rule="evenodd"/></g><g transform="translate(145.049 134.894)"><path d="M407.653,399.524l-2.4,2.437,2.084,2.084c1.1.98,2.2,1.96,2.2,1.96l2.287-2.545s-1.075-.952-2.148-1.9Z" transform="translate(-391.526 -383.951)" fill="#292929" fill-rule="evenodd"/><path d="M405.054,396.611l-2.6,2.215s3.827,4.49,3.917,4.41l2.486-2.339C408.768,400.974,405.054,396.611,405.054,396.611Z" transform="translate(-395.938 -388.55)" fill="#292929" fill-rule="evenodd"/><path d="M402.718,393.485l-2.79,1.983,3.528,4.742,2.679-2.117Z" transform="translate(-399.928 -393.485)" fill="#292929" fill-rule="evenodd"/></g><g transform="translate(166.623 157.471)"><path d="M416.72,406.8l-1.728,2.948,2.55,1.475c1.289.7,2.579,1.4,2.579,1.4l1.612-3.017s-1.269-.686-2.535-1.359C417.963,407.527,416.72,406.8,416.72,406.8Z" transform="translate(-397.719 -395.033)" fill="#292929" fill-rule="evenodd"/><path d="M413.508,404.659l-1.973,2.793,4.892,3.311,1.823-2.883Z" transform="translate(-403.177 -398.421)" fill="#292929" fill-rule="evenodd"/><path d="M410.483,402.24l-2.189,2.625s1.129.934,2.3,1.833,2.326,1.816,2.326,1.816l2.073-2.723s-1.132-.882-2.269-1.764S410.483,402.24,410.483,402.24Z" transform="translate(-408.294 -402.24)" fill="#292929" fill-rule="evenodd"/></g><g transform="translate(193.211 174.226)"><path d="M427.252,411.8l-1.127,3.231s1.38.487,2.759.977c1.405.436,2.8.864,2.8.864l1.021-3.257s-1.369-.428-2.749-.846C428.608,412.292,427.252,411.8,427.252,411.8Z" transform="translate(-406.73 -403.893)" fill="#292929" fill-rule="evenodd"/><path d="M423.632,410.376l-1.318,3.151s1.356.562,2.718,1.122,2.723,1.078,2.723,1.078l1.212-3.2s-1.346-.5-2.674-1.057S423.632,410.376,423.632,410.376Z" transform="translate(-412.747 -406.149)" fill="#292929" fill-rule="evenodd"/><path d="M420.123,408.737,418.6,411.8l5.32,2.494,1.405-3.115Z" transform="translate(-418.604 -408.737)" fill="#292929" fill-rule="evenodd"/></g><g transform="translate(222.689 185.314)"><path d="M438.532,414.8l-.557,3.373,5.8.908.444-3.381Z" transform="translate(-417.499 -410.26)" fill="#292929" fill-rule="evenodd"/><path d="M434.734,414.03l-.766,3.337,5.748,1.194.65-3.358Z" transform="translate(-423.826 -411.469)" fill="#292929" fill-rule="evenodd"/><path d="M430.976,413.037l-.941,3.28s1.406.418,2.829.776,2.839.727,2.839.727l.836-3.309s-1.387-.366-2.785-.719S430.976,413.037,430.976,413.037Z" transform="translate(-430.035 -413.037)" fill="#292929" fill-rule="evenodd"/></g><g transform="translate(253.67 191.23)"><path d="M450.144,415.892l.188,3.412,5.887-.544-.374-3.4Z" transform="translate(-429.269 -415.288)" fill="#292929" fill-rule="evenodd"/><path d="M446.215,415.6l-.1,3.417s1.467.1,2.948.088c1.465-.036,2.945-.07,2.945-.07l-.054-3.407s-1.444.026-2.873.059C447.649,415.7,446.215,415.6,446.215,415.6Z" transform="translate(-435.626 -414.911)" fill="#292929" fill-rule="evenodd"/><path d="M442.4,415.331l-.348,3.4s1.46.152,2.93.3a28.056,28.056,0,0,0,2.927.2l.214-3.409a26.453,26.453,0,0,1-2.865-.193C443.818,415.475,442.4,415.331,442.4,415.331Z" transform="translate(-442.049 -415.331)" fill="#292929" fill-rule="evenodd"/></g><g transform="translate(284.814 182.241)"><path d="M461.7,414.56l1.452,3.1c.059.152,5.276-2.875,5.276-2.875l-1.754-2.937C466.67,411.858,461.768,414.7,461.7,414.56Z" transform="translate(-442.175 -411.845)" fill="#292929" fill-rule="evenodd"/><path d="M457.983,415.355l.959,3.275s1.434-.407,2.865-.817a25.561,25.561,0,0,0,2.8-1.068l-1.23-3.182a23.674,23.674,0,0,1-2.651,1.013C459.355,414.963,457.983,415.355,457.983,415.355Z" transform="translate(-448.037 -409.133)" fill="#292929" fill-rule="evenodd"/><path d="M454.126,415.749l.542,3.383,5.849-1.078-.766-3.327Z" transform="translate(-454.126 -407.293)" fill="#292929" fill-rule="evenodd"/></g></g></g><g transform="translate(1046.997 480.693)"><path d="M1391.719,303.284l86.936-86.611H1348.09l19.463,31.141-1.459,43.954,15.029-15.264Z" transform="translate(-1348.09 -216.673)" fill="none" stroke="#292929" stroke-width="0.7"/><path d="M1370.3,245.233l-3.082-8.434-12.138,22.842" transform="translate(-1337.052 -184.898)" fill="none" stroke="#292929" stroke-width="0.7"/><path d="M1366.346,268.083l99.648-51.382-110.272,30.991" transform="translate(-1336.04 -216.628)" fill="none" stroke="#292929" stroke-width="0.8"/></g></g></svg>